<svg xmlns="http://www.w3.org/2000/svg" width="483.651" height="246.553" viewBox="0 0 483.651 246.553">
  <g id="Group_3936" data-name="Group 3936" transform="translate(-46.432 -72.33)">
    <g id="Group_3891" data-name="Group 3891" transform="translate(391.595 91.989)">
      <g id="Group_3871" data-name="Group 3871" transform="translate(47.965 50.689)">
        <path id="Path_14713" data-name="Path 14713" d="M586.535,187.259c-.1,0-.2,0-.3-.01a5.21,5.21,0,0,1-4.024-2.744,10.144,10.144,0,0,1-1.292-5.937c.325-4.549,3.238-8.059,6.495-7.829,2.741.2,4.913,2.961,5.28,6.722a.183.183,0,0,1-.165.2.181.181,0,0,1-.2-.165c-.349-3.58-2.381-6.208-4.94-6.391-3.062-.215-5.791,3.141-6.1,7.489a9.776,9.776,0,0,0,1.24,5.719,4.854,4.854,0,0,0,3.734,2.568c2.433.181,4.776-1.982,5.7-5.244a.184.184,0,0,1,.354.1C591.381,185.038,589.032,187.259,586.535,187.259Z" transform="translate(-580.89 -168.701)" fill="#010526" stroke="#010526" stroke-miterlimit="10" stroke-width="0.5"/>
        <path id="Path_14714" data-name="Path 14714" d="M586.045,200.246a9.35,9.35,0,0,1-1.315-.093c-1.832-.263-3.02-.978-3.028-1.821l.694-11.511a.18.18,0,0,1,.2-.173.185.185,0,0,1,.173.2l-.694,11.5c.005.609,1.145,1.223,2.711,1.447,2.576.37,5.672-.352,6.412-2.8l.977-13.016a.185.185,0,0,1,.106-.154.188.188,0,0,1,.185.018,1.177,1.177,0,0,0,.5.2,1.247,1.247,0,0,0,.931-.293,2.658,2.658,0,0,0,.425-3.427,1.253,1.253,0,0,0-.833-.507,1.136,1.136,0,0,0-.677.135.184.184,0,0,1-.177-.322,1.507,1.507,0,0,1,.9-.177,1.612,1.612,0,0,1,1.082.646,3.024,3.024,0,0,1-.489,3.943,1.621,1.621,0,0,1-1.212.367,1.713,1.713,0,0,1-.4-.113l-.962,12.768C590.871,199.327,588.425,200.246,586.045,200.246Z" transform="translate(-581.104 -170.997)" fill="#010526" stroke="#010526" stroke-miterlimit="10" stroke-width="0.5"/>
        <path id="Path_14715" data-name="Path 14715" d="M597.177,183.366a.184.184,0,0,1-.15-.291L598,181.7a.184.184,0,0,1,.3.213l-.974,1.371A.184.184,0,0,1,597.177,183.366Z" transform="translate(-585.139 -171.577)" fill="#010526" stroke="#010526" stroke-miterlimit="10" stroke-width="0.5"/>
        <ellipse id="Ellipse_8" data-name="Ellipse 8" cx="0.436" cy="0.316" rx="0.436" ry="0.316" transform="matrix(0.071, -0.997, 0.997, 0.071, 6.994, 9.365)" fill="#010526" stroke="#010526" stroke-miterlimit="10" stroke-width="0.5"/>
        <ellipse id="Ellipse_9" data-name="Ellipse 9" cx="0.436" cy="0.316" rx="0.436" ry="0.316" transform="matrix(0.071, -0.997, 0.997, 0.071, 3.591, 9.122)" fill="#010526" stroke="#010526" stroke-miterlimit="10" stroke-width="0.5"/>
        <path id="Path_14716" data-name="Path 14716" d="M587.242,183.021a.093.093,0,0,1-.032-.006.092.092,0,0,1-.054-.119l.883-2.394a.092.092,0,0,1,.118-.054.09.09,0,0,1,.054.118l-.883,2.394A.091.091,0,0,1,587.242,183.021Z" transform="translate(-582.542 -171.264)" fill="#010526" stroke="#010526" stroke-miterlimit="10" stroke-width="0.5"/>
        <path id="Path_14717" data-name="Path 14717" d="M586.953,186.079a2.487,2.487,0,0,1-.277-.015,2.279,2.279,0,0,1-1.936-1.507.184.184,0,0,1,.344-.131,1.922,1.922,0,0,0,1.631,1.272,2.188,2.188,0,0,0,2.055-.944.184.184,0,1,1,.308.2A2.547,2.547,0,0,1,586.953,186.079Z" transform="translate(-581.903 -172.284)" fill="#010526" stroke="#010526" stroke-miterlimit="10" stroke-width="0.5"/>
        <path id="Path_14718" data-name="Path 14718" d="M594.774,179.5a1.951,1.951,0,0,1-2.537,1.586l-.925,12.773a19.13,19.13,0,0,0,8.026-.9c-.914-3.982-.934-9.361-2-16.833-.434-3.445-1.476-6.764-5.355-7.861a6.966,6.966,0,0,0-5.98.928c-5.61.479-4.753,7.137-4.753,7.137l4.4-3.837a14.979,14.979,0,0,0,6.868,4.422,1.151,1.151,0,0,1,1.07-.274,1.966,1.966,0,0,1,1.167,1.466A3.5,3.5,0,0,1,594.774,179.5Z" transform="translate(-580.972 -167.974)" fill="#010526" stroke="#010526" stroke-miterlimit="10" stroke-width="0.5"/>
        <ellipse id="Ellipse_10" data-name="Ellipse 10" cx="1.209" cy="0.622" rx="1.209" ry="0.622" transform="translate(7.423 9.668)" fill="#010526" opacity="0.4"/>
        <ellipse id="Ellipse_11" data-name="Ellipse 11" cx="1.209" cy="0.622" rx="1.209" ry="0.622" transform="translate(1.654 9.668)" fill="#010526" opacity="0.4"/>
      </g>
      <g id="Group_3890" data-name="Group 3890">
        <g id="Group_3874" data-name="Group 3874" transform="translate(4.388 133.134)">
          <g id="Group_3872" data-name="Group 3872" transform="translate(62.413)">
            <path id="Path_14719" data-name="Path 14719" d="M673.824,356.414a.193.193,0,0,1-.082-.019c-1.639-.827-40.18-20.286-42.812-22.4a20.834,20.834,0,0,1-4.316-5.346.184.184,0,1,1,.323-.177,20.434,20.434,0,0,0,4.222,5.235c2.6,2.091,42.347,22.158,42.748,22.359a.184.184,0,0,1-.083.349Z" transform="translate(-611.785 -293.105)" fill="#010526" stroke="#010526" stroke-miterlimit="10" stroke-width="0.5"/>
            <path id="Path_14720" data-name="Path 14720" d="M606.478,287.866,621.372,316.2s10.59-.139,17.945-6.024c0,0-9.709-22.36-13.534-29.716C625.2,283.593,616.224,286.432,606.478,287.866Z" transform="translate(-606.478 -280.462)" fill="#fff800"/>
            <path id="Path_14721" data-name="Path 14721" d="M688.824,345.547a.187.187,0,0,1-.1-.029l-37.8-24.6a.184.184,0,0,1,.2-.309l37.8,24.6a.184.184,0,0,1-.1.339Z" transform="translate(-618.183 -291.048)" fill="#010526" stroke="#010526" stroke-miterlimit="10" stroke-width="0.5"/>
            <path id="Path_14722" data-name="Path 14722" d="M699.36,354.031s1.983,20.791-1.469,23.952-7.422-15.061-7.422-15.061Z" transform="translate(-628.641 -299.874)" fill="#010526" stroke="#010526" stroke-miterlimit="10" stroke-width="0.5"/>
          </g>
          <g id="Group_3873" data-name="Group 3873" transform="translate(0 5.443)">
            <path id="Path_14723" data-name="Path 14723" d="M552.987,378.133l-.026,0a.183.183,0,0,1-.155-.208l6.716-45.908a.2.2,0,0,1,.035-.084l2.487-3.316a.184.184,0,1,1,.294.221l-2.459,3.279-6.71,45.861A.184.184,0,0,1,552.987,378.133Z" transform="translate(-529.902 -298.591)" fill="#010526" stroke="#010526" stroke-miterlimit="10" stroke-width="0.5"/>
            <path id="Path_14724" data-name="Path 14724" d="M537.314,370.642h0a.185.185,0,0,1-.182-.187c.026-1.815.634-44.479,1.876-47.532a40.222,40.222,0,0,1,4.326-6.935.184.184,0,0,1,.292.224,40.757,40.757,0,0,0-4.277,6.849c-1.216,2.992-1.842,46.956-1.848,47.4A.183.183,0,0,1,537.314,370.642Z" transform="translate(-525.766 -295.26)" fill="#010526" stroke="#010526" stroke-miterlimit="10" stroke-width="0.5"/>
            <path id="Path_14725" data-name="Path 14725" d="M544.935,394.056s-18.175,10.289-22.47,8.427,10.726-12.918,10.726-12.918Z" transform="translate(-521.693 -314.693)" fill="#010526" stroke="#010526" stroke-miterlimit="10" stroke-width="0.5"/>
            <path id="Path_14726" data-name="Path 14726" d="M558.655,287.856s-7.282,11.033-13.681,21.184c0,0,5.075,9.267,14.343,10.371l23.39-28.686C572.583,290.75,560.333,289.938,558.655,287.856Z" transform="translate(-527.836 -287.856)" fill="#fff800"/>
            <path id="Path_14727" data-name="Path 14727" d="M542.158,328.649h0a.185.185,0,0,1-.184-.184c0-.174.027-4.286,2.378-5.782a.184.184,0,0,1,.2.311c-2.18,1.387-2.207,5.43-2.207,5.472A.184.184,0,0,1,542.158,328.649Z" transform="translate(-527.045 -297.038)" fill="#010526" stroke="#010526" stroke-miterlimit="10" stroke-width="0.5"/>
          </g>
        </g>
        <g id="Group_3889" data-name="Group 3889">
          <g id="Group_3880" data-name="Group 3880" transform="translate(73.225)">
            <g id="Group_3875" data-name="Group 3875" transform="translate(10.041 2.514)">
              <path id="Path_14728" data-name="Path 14728" d="M636.816,169.5a.184.184,0,0,1-.163-.269c.1-.2,10.413-20.133,10.317-24.631-.121-5.69-15.111-30-15.262-30.243a.177.177,0,0,1-.026-.084c-.389-5.45-1.128-11.242-1.693-11.5a.315.315,0,0,0-.307-.015c-.325.184-.435,1.117-.471,1.424a.184.184,0,1,1-.365-.043c.083-.7.225-1.458.654-1.7a.681.681,0,0,1,.64,0c1.041.467,1.763,9.774,1.906,11.763.9,1.453,15.172,24.661,15.293,30.39.1,4.591-9.932,23.985-10.359,24.809A.184.184,0,0,1,636.816,169.5Z" transform="translate(-628.844 -102.361)" fill="#010526" stroke="#010526" stroke-miterlimit="10" stroke-width="0.5"/>
            </g>
            <g id="Group_3876" data-name="Group 3876" transform="translate(6.571 17.388)">
              <path id="Path_14729" data-name="Path 14729" d="M624.392,167.732a.181.181,0,0,1-.094-.026.185.185,0,0,1-.065-.252,199.537,199.537,0,0,0,10.142-19.785l-10.231-24.849a.184.184,0,0,1,.341-.14l10.26,24.92a.183.183,0,0,1,0,.144,199.817,199.817,0,0,1-10.193,19.9A.185.185,0,0,1,624.392,167.732Z" transform="translate(-624.131 -122.566)" fill="#010526" stroke="#010526" stroke-miterlimit="10" stroke-width="0.5"/>
            </g>
            <g id="Group_3877" data-name="Group 3877" transform="translate(3.114 1.636)">
              <path id="Path_14730" data-name="Path 14730" d="M621.4,113.107a.183.183,0,0,1-.178-.138l-.017-.066c-.307-1.209-.655-2.579-.926-3.835-.732-3.391-1.156-7.154-.552-7.782a.361.361,0,0,1,.328-.113c1.453.255,2.768,7.1,2.747,7.647a.192.192,0,0,1-.191.177.185.185,0,0,1-.177-.191c.024-.617-1.378-7.083-2.442-7.27-.292.17-.339,2.883.647,7.454.27,1.249.618,2.616.924,3.822l.016.066a.182.182,0,0,1-.132.223A.162.162,0,0,1,621.4,113.107Z" transform="translate(-619.435 -101.168)" fill="#010526" stroke="#010526" stroke-miterlimit="10" stroke-width="0.5"/>
            </g>
            <g id="Group_3878" data-name="Group 3878" transform="translate(5.399)">
              <path id="Path_14731" data-name="Path 14731" d="M623.427,108.439a.186.186,0,0,1-.121-.046.184.184,0,0,1-.063-.144.191.191,0,0,1,.011-.084c.015-.176-.1-1-.205-1.8-.434-3.2-.8-6.389-.172-7.195a.549.549,0,0,1,.375-.22c1.123-.121,1.507,1.4,1.739,2.909.025.166.05.355.074.562a3.785,3.785,0,0,1,.582-1.8.811.811,0,0,1,.564-.314.668.668,0,0,1,.492.169c.6.511.728,2.069.741,2.245l.484,4.8a.184.184,0,0,1-.165.2.176.176,0,0,1-.2-.164l-.484-4.8a3.858,3.858,0,0,0-.615-2,.3.3,0,0,0-.224-.082.451.451,0,0,0-.31.183c-.541.646-.653,2.671-.621,4.5.091,1.408.147,2.651.151,2.747a.184.184,0,0,1-.367.026c-.01-.111-.126-1.333-.154-2.778-.081-1.262-.189-2.65-.311-3.444-.292-1.89-.678-2.674-1.336-2.6a.181.181,0,0,0-.124.082c-.589.751-.044,4.763.247,6.918a10.035,10.035,0,0,1,.2,1.954l0,.011a.191.191,0,0,1-.041.093A.184.184,0,0,1,623.427,108.439Z" transform="translate(-622.539 -98.946)" fill="#010526" stroke="#010526" stroke-miterlimit="10" stroke-width="0.5"/>
            </g>
            <g id="Group_3879" data-name="Group 3879" transform="translate(0 10.912)">
              <path id="Path_14732" data-name="Path 14732" d="M621.874,120.6a.186.186,0,0,1-.119-.043c-.029-.024-2.869-2.414-3.907-3.176-1.563-1.146-2.956-2.331-2.582-3.228a.61.61,0,0,1,.448-.361c.865-.21,2.887.78,4.7,2.306a.184.184,0,0,1-.237.281c-1.871-1.578-3.73-2.384-4.372-2.229a.246.246,0,0,0-.2.145c-.314.753,1.773,2.286,2.459,2.789,1.047.769,3.9,3.166,3.927,3.19a.184.184,0,0,1-.119.325Z" transform="translate(-615.205 -113.769)" fill="#010526" stroke="#010526" stroke-miterlimit="10" stroke-width="0.5"/>
            </g>
            <path id="Path_14733" data-name="Path 14733" d="M650.426,161.323a.166.166,0,0,1-.057-.009.184.184,0,0,1-.119-.232,2.429,2.429,0,0,0-.529-2.83.184.184,0,0,1,.218-.3,2.773,2.773,0,0,1,.66,3.241A.183.183,0,0,1,650.426,161.323Z" transform="translate(-624.293 -114.507)" fill="#010526" stroke="#010526" stroke-miterlimit="10" stroke-width="0.5"/>
          </g>
          <g id="Group_3887" data-name="Group 3887" transform="translate(0 41.053)">
            <g id="Group_3881" data-name="Group 3881" transform="translate(0 2.473)">
              <path id="Path_14734" data-name="Path 14734" d="M526.876,210.379c-3.121,0-6.208-.218-7.785-.946a5.431,5.431,0,0,1-2.97-3.151c-.788-2.188-.372-5.082,1.2-8.372,1.231-2.571,13.858-26.234,14.489-27.417-.035-.909-.371-11.055,1.993-12.341a.466.466,0,0,1,.5-.011c.458.293.465,1.517.321,3.674a.184.184,0,0,1-.183.172h-.013a.183.183,0,0,1-.171-.2c.057-.85.208-3.109-.152-3.34-.024-.017-.069-.008-.129.025-1.845,1-1.923,9.04-1.8,12.053a.184.184,0,0,1-.022.094c-.132.248-13.253,24.831-14.506,27.448-1.532,3.2-1.942,6-1.188,8.087a5.075,5.075,0,0,0,2.777,2.943c3.735,1.723,16.747.452,16.878.439a.184.184,0,1,1,.036.367C535.843,209.937,531.324,210.379,526.876,210.379Z" transform="translate(-515.733 -158.073)" fill="#010526" stroke="#010526" stroke-miterlimit="10" stroke-width="0.5"/>
            </g>
            <g id="Group_3882" data-name="Group 3882" transform="translate(18.287 0.708)">
              <path id="Path_14735" data-name="Path 14735" d="M542.889,164.572h-.023a.184.184,0,0,1-.16-.2c0-.024.292-2.334.721-4.42.085-.412.176-.816.262-1.2.261-1.153.583-2.588.273-2.676a.721.721,0,0,0-.587.095c-1.257.747-2.1,4.407-2.105,4.443a22.616,22.616,0,0,0-.328,3.09.178.178,0,0,1-.19.177.184.184,0,0,1-.178-.19,23.08,23.08,0,0,1,.335-3.148c.038-.167.886-3.861,2.278-4.689a1.083,1.083,0,0,1,.876-.133c.646.182.384,1.347-.013,3.111-.087.382-.177.784-.261,1.194-.426,2.071-.714,4.367-.717,4.39A.184.184,0,0,1,542.889,164.572Z" transform="translate(-540.575 -155.675)" fill="#010526" stroke="#010526" stroke-miterlimit="10" stroke-width="0.5"/>
            </g>
            <g id="Group_3883" data-name="Group 3883" transform="translate(14.615 17.11)">
              <path id="Path_14736" data-name="Path 14736" d="M535.771,203.247a.184.184,0,0,1-.175-.242l8.2-24.923a.184.184,0,0,1,.349.115l-8.108,24.64,5.737-.855a.179.179,0,0,1,.209.155.184.184,0,0,1-.155.209l-6.032.9Z" transform="translate(-535.586 -177.956)" fill="#010526" stroke="#010526" stroke-miterlimit="10" stroke-width="0.5"/>
            </g>
            <g id="Group_3884" data-name="Group 3884" transform="translate(22.448 1.345)">
              <path id="Path_14737" data-name="Path 14737" d="M547.933,168.7a.154.154,0,0,1-.032,0,.184.184,0,0,1-.15-.213c.082-.465.148-.961.212-1.442a20.779,20.779,0,0,1,.439-2.526c.158-.6.331-1.231.505-1.855.641-2.322,1.519-5.5.935-5.735-.027-.01-.11-.045-.278.075-1.218.88-3,6.984-2.97,7.489a.188.188,0,0,1-.167.2.185.185,0,0,1-.2-.158c-.057-.494,1.732-6.768,3.094-7.808a.648.648,0,0,1,.656-.138c.847.339.28,2.568-.718,6.175-.172.623-.345,1.248-.5,1.851a20.354,20.354,0,0,0-.431,2.482c-.064.484-.13.985-.214,1.458A.184.184,0,0,1,547.933,168.7Z" transform="translate(-546.227 -156.541)" fill="#010526" stroke="#010526" stroke-miterlimit="10" stroke-width="0.5"/>
            </g>
            <g id="Group_3885" data-name="Group 3885" transform="translate(21.766)">
              <path id="Path_14738" data-name="Path 14738" d="M546.174,164.234a.183.183,0,0,1-.126-.05.193.193,0,0,1-.053-.1.168.168,0,0,1-.01-.087c.272-1.854.665-3.573.981-4.954.445-1.951.83-3.64.425-3.949-.795-.155-1.513,1.295-1.734,1.871a.184.184,0,1,1-.344-.131c.037-.1.917-2.393,2.193-2.091a.176.176,0,0,1,.052.021c.669.4.329,1.892-.234,4.361-.311,1.366-.7,3.063-.969,4.888v.007a.182.182,0,0,1-.046.157A.186.186,0,0,1,546.174,164.234Z" transform="translate(-545.3 -154.714)" fill="#010526" stroke="#010526" stroke-miterlimit="10" stroke-width="0.5"/>
            </g>
            <g id="Group_3886" data-name="Group 3886" transform="translate(22.817 10.482)">
              <path id="Path_14739" data-name="Path 14739" d="M546.912,175.949a.184.184,0,0,1-.113-.329,45.414,45.414,0,0,0,3.9-3.422c1.792-1.854,1.9-2.546,1.868-2.758a.112.112,0,0,0-.088-.1c-.565-.187-2.655.969-4.293,2.575a.184.184,0,0,1-.258-.264c1.513-1.483,3.8-2.944,4.664-2.662a.478.478,0,0,1,.336.39c.1.588-.562,1.622-1.965,3.075a45.584,45.584,0,0,1-3.935,3.456A.179.179,0,0,1,546.912,175.949Z" transform="translate(-546.728 -168.953)" fill="#010526" stroke="#010526" stroke-miterlimit="10" stroke-width="0.5"/>
            </g>
            <path id="Path_14740" data-name="Path 14740" d="M521.982,223.829h-.023c-2.47-.308-2.8-3.222-2.808-3.252a.184.184,0,0,1,.367-.038c.012.108.308,2.653,2.487,2.925a.184.184,0,0,1-.023.367Z" transform="translate(-516.634 -172.039)" fill="#010526" stroke="#010526" stroke-miterlimit="10" stroke-width="0.5"/>
          </g>
          <g id="Group_3888" data-name="Group 3888" transform="translate(20.239 61.941)">
            <path id="Path_14741" data-name="Path 14741" d="M569.522,263.728c.812,6.414-2.7,18.389-.512,19.815,0,0-4.935-.312-5.462-2.053S569.451,268.6,569.522,263.728Z" transform="translate(-548.581 -204.367)" fill="#fff"/>
            <path id="Path_14742" data-name="Path 14742" d="M583.317,263.233c-8.133,0-19.354-.726-20.027-2.968-.4-1.318.728-3.627,2.151-6.55,1.847-3.793,4.144-8.514,3.726-12.609-1.69-16.567-2.185-27.866-1.471-33.582a.184.184,0,1,1,.365.046c-.71,5.687-.216,16.958,1.472,33.5.428,4.2-1.9,8.971-3.762,12.807-1.332,2.738-2.483,5.1-2.13,6.282.349,1.162,4.85,2.107,12.043,2.526a95.621,95.621,0,0,0,15.261-.153c.861-.138,1.9-.277,3-.423,6.234-.827,15.655-2.078,20.116-6.712,1.715-1.782-2.864-12.165-5.893-19.036-.964-2.185-1.8-4.071-2.362-5.5-2.491-6.3-.3-19.918-.209-20.494a.183.183,0,0,1,.057-.106,62.367,62.367,0,0,0,13.69-19.565l-11.714-7.182c-1.176,1.3-10.854,12.012-12.191,13.218-1.437,1.3-8.643,1.454-8.949,1.46a.184.184,0,0,1-.007-.368c.073,0,7.372-.16,8.71-1.365,1.38-1.245,12.157-13.185,12.266-13.306a.185.185,0,0,1,.233-.034l11.981,7.346a.183.183,0,0,1,.072.229,62.764,62.764,0,0,1-13.794,19.794c-.161,1.024-2.172,14.243.2,20.237.563,1.424,1.393,3.309,2.356,5.49,3.434,7.787,7.707,17.479,5.821,19.439-4.549,4.727-14.046,5.987-20.331,6.822-1.1.146-2.138.283-2.993.421A62.391,62.391,0,0,1,583.317,263.233Z" transform="translate(-548.5 -183.09)" fill="#010526" stroke="#010526" stroke-miterlimit="10" stroke-width="0.5"/>
            <path id="Path_14743" data-name="Path 14743" d="M543.411,223.463a.187.187,0,0,1-.12-.045.184.184,0,0,1-.064-.144l.356-14.255a.185.185,0,0,1,.141-.175c.147-.035,14.757-3.532,19.578-4.1,3.765-.442,8.272-.587,8.318-.589a.19.19,0,0,1,.189.178.185.185,0,0,1-.178.19c-.045,0-4.537.146-8.286.586-4.549.535-17.892,3.7-19.4,4.059l-.346,13.888,18.587-3.31a.184.184,0,1,1,.065.362l-18.809,3.349A.16.16,0,0,1,543.411,223.463Z" transform="translate(-543.227 -188.649)" fill="#010526" stroke="#010526" stroke-miterlimit="10" stroke-width="0.5"/>
            <path id="Path_14744" data-name="Path 14744" d="M600.043,267.116c-9.059,0-15.781-6.166-15.854-6.235a.184.184,0,1,1,.251-.269c.081.074,8.181,7.5,18.535,5.912a.185.185,0,0,1,.21.154.183.183,0,0,1-.154.21A19.637,19.637,0,0,1,600.043,267.116Z" transform="translate(-554.02 -203.532)" fill="#010526" stroke="#010526" stroke-miterlimit="10" stroke-width="0.5"/>
            <path id="Path_14745" data-name="Path 14745" d="M600.8,257.233a14.92,14.92,0,0,1-7.754-2.221.183.183,0,0,1-.046-.256.188.188,0,0,1,.256-.046,14.381,14.381,0,0,0,8.281,2.135.191.191,0,0,1,.194.174.186.186,0,0,1-.174.194C601.307,257.227,601.054,257.233,600.8,257.233Z" transform="translate(-556.353 -201.979)" fill="#010526" stroke="#010526" stroke-miterlimit="10" stroke-width="0.5"/>
            <path id="Path_14746" data-name="Path 14746" d="M555.558,225.283l10.163-7.272-.35,5.432Z" transform="translate(-546.481 -192.304)" fill="#010526" stroke="#010526" stroke-miterlimit="10" stroke-width="0.5"/>
          </g>
        </g>
      </g>
    </g>
    <g id="Group_3911" data-name="Group 3911" transform="translate(46.682 94.165)">
      <g id="Group_3909" data-name="Group 3909">
        <g id="Group_3893" data-name="Group 3893" transform="translate(0 87.565)">
          <path id="Path_14747" data-name="Path 14747" d="M183.936,275.128c.089.217-4.837-6.828-11.6-14.814-6.289-7.425-14.2-15.655-20.355-19.837a38.742,38.742,0,0,1-11.415,2.364,30.556,30.556,0,0,1-13.484-2.327l-20.616,13.75L94.773,241.787l-13.621,12.54s11.828,17.385,13.839,19.355,6.307,6.139,14.123,3.531,28.75-17.882,28.75-17.882,4.036,2.986,9.565,7.123c5.278,3.949,11.946,8.93,16.642,14.073,2.453,2.686,4.906,5.372,6.6,7.065Z" transform="translate(-55.777 -226.032)" fill="#010526" opacity="0.4"/>
          <path id="Path_14748" data-name="Path 14748" d="M110.727,254.262a.185.185,0,0,1-.135-.058L97.353,240.081a.184.184,0,1,1,.269-.251l13.133,14.008L131.293,240.1a.184.184,0,1,1,.2.306L110.83,254.231A.187.187,0,0,1,110.727,254.262Z" transform="translate(-60.039 -225.846)" fill="#010526" stroke="#010526" stroke-miterlimit="10" stroke-width="0.5"/>
          <path id="Path_14749" data-name="Path 14749" d="M104.54,283.284A12.389,12.389,0,0,1,95,279c-2.334-2.627-13.144-18.395-13.253-18.554a.184.184,0,1,1,.3-.208c.109.159,10.907,15.908,13.225,18.517,2.4,2.694,6.758,5.487,13.935,3.475,7.239-2.027,32.637-20.962,32.893-21.154a.184.184,0,0,1,.219.3c-1.045.781-25.708,19.168-33.013,21.213A17.692,17.692,0,0,1,104.54,283.284Z" transform="translate(-55.926 -231.225)" fill="#010526" stroke="#010526" stroke-miterlimit="10" stroke-width="0.5"/>
          <path id="Path_14750" data-name="Path 14750" d="M191.412,295.24a.183.183,0,0,1-.138-.063c-.088-.1-8.868-10.037-13.222-13.81-3.012-2.61-20.028-15.181-20.2-15.307a.184.184,0,0,1,.219-.3c.172.127,17.2,12.706,20.222,15.326,4.373,3.788,13.169,13.744,13.257,13.845a.183.183,0,0,1-.016.26A.181.181,0,0,1,191.412,295.24Z" transform="translate(-75.996 -232.695)" fill="#010526" stroke="#010526" stroke-miterlimit="10" stroke-width="0.5"/>
          <path id="Path_14751" data-name="Path 14751" d="M207.433,272.9a.184.184,0,0,1-.152-.08A164.162,164.162,0,0,0,177.3,240.5a.184.184,0,1,1,.237-.281,164.512,164.512,0,0,1,30.044,32.4.185.185,0,0,1-.048.256A.188.188,0,0,1,207.433,272.9Z" transform="translate(-81.131 -225.951)" fill="#010526" stroke="#010526" stroke-miterlimit="10" stroke-width="0.5"/>
          <path id="Path_14752" data-name="Path 14752" d="M227.92,321.934s23.109-4.984,21.9-9.506c-.883-3.31-13.484-.09-13.484-.09Z" transform="translate(-94.504 -244.623)" fill="#010526" stroke="#010526" stroke-miterlimit="10" stroke-width="0.5"/>
          <path id="Path_14753" data-name="Path 14753" d="M222.885,320.971a.184.184,0,0,1-.126-.049l-14.137-13.286a.184.184,0,1,1,.252-.269l14.137,13.286a.184.184,0,0,1-.126.318Z" transform="translate(-89.397 -243.669)" fill="#010526" stroke="#010526" stroke-miterlimit="10" stroke-width="0.5"/>
          <path id="Path_14754" data-name="Path 14754" d="M234.654,307.733a.18.18,0,0,1-.137-.062l-12.938-14.579a.184.184,0,0,1,.275-.244l12.938,14.579a.183.183,0,0,1-.015.259A.181.181,0,0,1,234.654,307.733Z" transform="translate(-92.819 -239.835)" fill="#010526" stroke="#010526" stroke-miterlimit="10" stroke-width="0.5"/>
          <g id="Group_3892" data-name="Group 3892" transform="translate(0 0.008)">
            <path id="Path_14755" data-name="Path 14755" d="M69.042,220.865S45.767,224.318,46.71,228.9c.69,3.355,13.457.867,13.457.867Z" transform="translate(-46.682 -220.865)" fill="#010526" stroke="#010526" stroke-miterlimit="10" stroke-width="0.5"/>
          </g>
          <path id="Path_14756" data-name="Path 14756" d="M90.3,235.125a.183.183,0,0,1-.133-.056c-1.75-1.809-3.767-3.949-5.718-6.019-3.6-3.823-7.007-7.435-7.693-7.855a.183.183,0,1,1,.191-.313c.729.445,3.991,3.907,7.77,7.916,1.95,2.069,3.966,4.209,5.715,6.016a.185.185,0,0,1,0,.261A.182.182,0,0,1,90.3,235.125Z" transform="translate(-54.595 -220.854)" fill="#010526" stroke="#010526" stroke-miterlimit="10" stroke-width="0.5"/>
          <path id="Path_14757" data-name="Path 14757" d="M77.008,248.383a.182.182,0,0,1-.144-.07l-12.074-15.3a.184.184,0,0,1,.289-.228l12.074,15.3a.184.184,0,0,1-.145.3Z" transform="translate(-51.45 -223.983)" fill="#010526" stroke="#010526" stroke-miterlimit="10" stroke-width="0.5"/>
          <path id="Path_14758" data-name="Path 14758" d="M75.6,251.058l3.9,4.116L95.62,239.649l-3.272-3.724Z" transform="translate(-54.312 -224.831)" fill="#fff800"/>
          <path id="Path_14759" data-name="Path 14759" d="M200.56,300.051l4.422,4.076,14.445-15.492-3.46-3.3Z" transform="translate(-87.285 -237.869)" fill="#fff800"/>
          <path id="Path_14760" data-name="Path 14760" d="M161.925,262.1s8.6,10.326,10.445,13.531l-14.3-10.682Z" transform="translate(-76.073 -231.738)" fill="#010526" stroke="#010526" stroke-miterlimit="10" stroke-width="0.5"/>
        </g>
        <g id="Group_3908" data-name="Group 3908" transform="translate(4.098)">
          <g id="Group_3899" data-name="Group 3899" transform="translate(0 50.482)">
            <g id="Group_3894" data-name="Group 3894" transform="translate(0.244 4.568)">
              <path id="Path_14761" data-name="Path 14761" d="M89.186,208.4a5.473,5.473,0,0,1-.882-.063c-4.372-.73-22.455-21.307-23.661-22.683-2.71-.7-11.223-3.009-11.116-4.317a.422.422,0,0,1,.189-.317c.626-.448,3.232.033,4.859.395L54.06,178.9c-.148-.09-1.4-.866-1.474-1.593a.49.49,0,0,1,.2-.481c1.073-.764,6.993,1.9,8.17,2.437a.184.184,0,1,1-.154.334c-2.649-1.22-7.109-2.967-7.8-2.473-.029.021-.06.052-.05.144.043.411.816,1.023,1.293,1.313l5.668,3.163a.184.184,0,0,1-.135.339c-1.965-.5-5.291-1.155-5.847-.758-.034.024-.035.039-.036.047-.056.686,5.612,2.582,10.9,3.945a.18.18,0,0,1,.092.057c.191.219,19.184,21.889,23.483,22.6,4.432.752,20.627-5.661,20.791-5.726a.184.184,0,0,1,.136.342C108.661,202.842,94.592,208.4,89.186,208.4Z" transform="translate(-52.581 -176.685)" fill="#010526" stroke="#010526" stroke-miterlimit="10" stroke-width="0.5"/>
            </g>
            <g id="Group_3895" data-name="Group 3895" transform="translate(16.158 7.352)">
              <path id="Path_14762" data-name="Path 14762" d="M96.687,197.423a.184.184,0,0,1-.11-.037L74.273,180.8a.184.184,0,0,1,.22-.3L96.71,197.027a123.324,123.324,0,0,1,17.434-6.482.184.184,0,1,1,.1.353,123.12,123.12,0,0,0-17.485,6.51A.193.193,0,0,1,96.687,197.423Z" transform="translate(-74.199 -180.467)" fill="#010526" stroke="#010526" stroke-miterlimit="10" stroke-width="0.5"/>
            </g>
            <g id="Group_3896" data-name="Group 3896" transform="translate(1.813 1.014)">
              <path id="Path_14763" data-name="Path 14763" d="M62,176.575a.233.233,0,0,1-.039,0c-.442-.094-6.4-2.344-7.157-3.748a.588.588,0,0,1-.054-.509c.42-1.065,2.948-.088,5.874,1.044.733.283,1.474.57,2.179.822a15.271,15.271,0,0,1,2.544,1.295c.345.2.686.4,1.024.588a.184.184,0,1,1-.176.324c-.341-.186-.686-.389-1.035-.595a15.049,15.049,0,0,0-2.481-1.266c-.708-.253-1.452-.54-2.188-.824-2.278-.88-5.112-1.977-5.4-1.251-.007.018-.03.077.036.2.648,1.205,6.471,3.468,6.911,3.561a.184.184,0,0,1-.038.364Z" transform="translate(-54.712 -171.856)" fill="#010526" stroke="#010526" stroke-miterlimit="10" stroke-width="0.5"/>
            </g>
            <g id="Group_3897" data-name="Group 3897" transform="translate(0 2.7)">
              <path id="Path_14764" data-name="Path 14764" d="M61.378,177.18h-.034a.178.178,0,0,1-.045-.006c-.389-.11-1.106-.395-2.013-.756-1.879-.748-6.276-2.5-6.61-1.734a.6.6,0,0,0-.007.5c.238.543,1.168.872,1.177.876a.184.184,0,0,1-.121.347,2.634,2.634,0,0,1-1.394-1.076.962.962,0,0,1,.007-.8c.439-1.008,3.468.1,7.083,1.539.84.334,1.568.624,1.948.735a.2.2,0,0,1,.042.007.182.182,0,0,1-.034.362Z" transform="translate(-52.249 -174.147)" fill="#010526" stroke="#010526" stroke-miterlimit="10" stroke-width="0.5"/>
            </g>
            <g id="Group_3898" data-name="Group 3898" transform="translate(11.768)">
              <path id="Path_14765" data-name="Path 14765" d="M72.776,178.246a.184.184,0,0,1-.175-.129c-.011-.035-1.084-3.445-1.566-4.638a4.859,4.859,0,0,0-1.977-2.629.219.219,0,0,0-.23.112c-.384.518-.331,2.458.632,4.44a.184.184,0,0,1-.332.16c-.986-2.033-1.1-4.133-.6-4.819a.591.591,0,0,1,.584-.256c.64.1,1.676,1.408,2.261,2.855.488,1.206,1.532,4.524,1.575,4.665a.184.184,0,0,1-.12.23A.181.181,0,0,1,72.776,178.246Z" transform="translate(-68.236 -170.479)" fill="#010526" stroke="#010526" stroke-miterlimit="10" stroke-width="0.5"/>
            </g>
            <path id="Path_14766" data-name="Path 14766" d="M105.77,216.3a2.692,2.692,0,0,1-2.657-1.45.185.185,0,0,1,.1-.239.188.188,0,0,1,.24.1,2.447,2.447,0,0,0,2.612,1.21.17.17,0,0,1,.2.171.184.184,0,0,1-.172.2Q105.924,216.295,105.77,216.3Z" transform="translate(-65.667 -182.119)" fill="#010526" stroke="#010526" stroke-miterlimit="10" stroke-width="0.5"/>
          </g>
          <g id="Group_3906" data-name="Group 3906" transform="translate(95.099)">
            <g id="Group_3900" data-name="Group 3900" transform="translate(6.36 3.517)">
              <path id="Path_14767" data-name="Path 14767" d="M190.259,174.617a.186.186,0,0,1-.126-.05.184.184,0,0,1-.008-.26c.165-.177,16.537-17.711,17.648-22.07,1.405-5.514-6.538-32.946-6.619-33.223a.18.18,0,0,1,0-.084c1.168-6.429,1.578-11.759.917-11.882-.007,0-.033-.007-.085.03-.59.428-1.211,3.6-1.463,5.491a.188.188,0,0,1-.207.158.185.185,0,0,1-.158-.207c.068-.518.7-5.079,1.613-5.74a.465.465,0,0,1,.368-.093c1.44.267-.095,9.4-.615,12.266.471,1.623,8.025,27.821,6.609,33.375-1.134,4.451-17.058,21.507-17.736,22.231A.185.185,0,0,1,190.259,174.617Z" transform="translate(-190.075 -106.679)" fill="#010526" stroke="#010526" stroke-miterlimit="10" stroke-width="0.5"/>
            </g>
            <g id="Group_3901" data-name="Group 3901" transform="translate(14.087 1.83)">
              <path id="Path_14768" data-name="Path 14768" d="M200.756,112.176a.184.184,0,0,1-.18-.224c.4-1.787,1.775-7.565,3.03-7.565l.042,0a.655.655,0,0,1,.469.275c.49.663.17,2.37.132,2.562a.184.184,0,1,1-.361-.071,4.089,4.089,0,0,0-.067-2.272.286.286,0,0,0-.211-.128h-.016c-.646,0-1.878,3.756-2.658,7.277A.184.184,0,0,1,200.756,112.176Z" transform="translate(-200.572 -104.388)" fill="#010526" stroke="#010526" stroke-miterlimit="10" stroke-width="0.5"/>
            </g>
            <g id="Group_3902" data-name="Group 3902" transform="translate(0 16.132)">
              <path id="Path_14769" data-name="Path 14769" d="M181.62,167.249a.182.182,0,0,1-.133-.056.185.185,0,0,1,0-.261,175.679,175.679,0,0,0,13.669-15.391l-3.314-27.52a.184.184,0,0,1,.365-.044l3.323,27.6a.182.182,0,0,1-.039.138A176.392,176.392,0,0,1,181.747,167.2.185.185,0,0,1,181.62,167.249Z" transform="translate(-181.436 -123.816)" fill="#010526" stroke="#010526" stroke-miterlimit="10" stroke-width="0.5"/>
            </g>
            <g id="Group_3903" data-name="Group 3903" transform="translate(10.026 0.922)">
              <path id="Path_14770" data-name="Path 14770" d="M195.24,114.331h0a.184.184,0,0,1-.18-.187c.02-.962.043-2.158.119-3.251.242-3.513.82-7.252,1.564-7.686a.354.354,0,0,1,.342-.018c1.33.635.76,7.615.592,8.142a.184.184,0,0,1-.351-.112c.19-.591.576-7.233-.4-7.7-.356.1-1.062,2.793-1.38,7.4-.074,1.084-.1,2.275-.118,3.232A.184.184,0,0,1,195.24,114.331Z" transform="translate(-195.056 -103.154)" fill="#010526" stroke="#010526" stroke-miterlimit="10" stroke-width="0.5"/>
            </g>
            <g id="Group_3904" data-name="Group 3904" transform="translate(12.27)">
              <path id="Path_14771" data-name="Path 14771" d="M198.289,111.154a.186.186,0,0,1-.158-.088.223.223,0,0,1,.018-.231c.063-.16.219-.893.384-1.667.721-3.388,1.5-6.734,2.356-7.2a.476.476,0,0,1,.408-.034c1.087.244.746,3.012.666,3.564a.19.19,0,0,1-.208.156.184.184,0,0,1-.156-.208c.178-1.234.169-3.029-.409-3.16a.131.131,0,0,0-.125.006c-.783.425-1.721,4.835-2.172,6.954a12.412,12.412,0,0,1-.433,1.791l-.008.013a.188.188,0,0,1-.068.079A.184.184,0,0,1,198.289,111.154Z" transform="translate(-198.104 -101.902)" fill="#010526" stroke="#010526" stroke-miterlimit="10" stroke-width="0.5"/>
            </g>
            <g id="Group_3905" data-name="Group 3905" transform="translate(5.727 8.5)">
              <path id="Path_14772" data-name="Path 14772" d="M194.141,121.443a.182.182,0,0,1-.112-.038,16.52,16.52,0,0,1-2.986-3.034c-1.292-1.82-2.019-3.955-1.784-4.576a.523.523,0,0,1,.451-.34c.9-.11,2.882,1.441,4.122,3.254a.184.184,0,0,1-.3.208c-1.3-1.9-3.16-3.174-3.774-3.1a.155.155,0,0,0-.15.1c-.152.4.409,2.357,1.739,4.233a16.428,16.428,0,0,0,2.909,2.955.184.184,0,0,1-.112.331Z" transform="translate(-189.215 -113.449)" fill="#010526" stroke="#010526" stroke-miterlimit="10" stroke-width="0.5"/>
            </g>
            <path id="Path_14773" data-name="Path 14773" d="M210.706,169.3a.184.184,0,0,1-.153-.286,2.449,2.449,0,0,0,.247-2.867.184.184,0,0,1,.289-.229,2.777,2.777,0,0,1-.23,3.3A.182.182,0,0,1,210.706,169.3Z" transform="translate(-189.111 -118.775)" fill="#010526" stroke="#010526" stroke-miterlimit="10" stroke-width="0.5"/>
          </g>
          <g id="Group_3907" data-name="Group 3907" transform="translate(55.934 59.121)">
            <path id="Path_14774" data-name="Path 14774" d="M128.741,195.595s7.528-2.065,9.409-2.124c2.354-.074,8.73.439,8.73.439s-7.656-1.982-8.73-1.915-9.519,1.842-9.519,1.842Z" transform="translate(-128.338 -184.795)" fill="#fff"/>
            <path id="Path_14775" data-name="Path 14775" d="M178.527,200.63a.184.184,0,0,1-.138-.306l5.257-5.959-6.258-11.66L166.021,194.2a.184.184,0,0,1-.262-.258L177.3,182.269a.184.184,0,0,1,.293.042l6.436,11.992a.184.184,0,0,1-.024.208l-5.341,6.055A.183.183,0,0,1,178.527,200.63Z" transform="translate(-138.12 -182.215)" fill="#010526" stroke="#010526" stroke-miterlimit="10" stroke-width="0.5"/>
            <path id="Path_14776" data-name="Path 14776" d="M151.962,230.218a32.73,32.73,0,0,1-12.475-2.449.183.183,0,0,1-.115-.174,174.647,174.647,0,0,0-1.078-21.634l-9.083,1.3a.184.184,0,0,1-.21-.171l-.769-13.4a.184.184,0,0,1,.134-.188c.3-.084,7.462-2.055,10.117-1.614,2.623.437,8.351,1.692,8.409,1.7a.184.184,0,0,1-.079.36c-.057-.013-5.776-1.266-8.39-1.7-2.378-.4-8.775,1.286-9.815,1.566l.749,13.047,9.07-1.3a.176.176,0,0,1,.138.035.184.184,0,0,1,.071.123,173.6,173.6,0,0,1,1.107,21.746,32.971,32.971,0,0,0,24.609-.015c4.1-9.149,4.148-28.136,4.148-28.327a.184.184,0,1,1,.368,0c0,.193-.048,19.343-4.209,28.541a.187.187,0,0,1-.088.091A32.125,32.125,0,0,1,151.962,230.218Z" transform="translate(-128.233 -184.751)" fill="#010526" stroke="#010526" stroke-miterlimit="10" stroke-width="0.5"/>
            <path id="Path_14777" data-name="Path 14777" d="M160.68,204.534a.184.184,0,0,1-.167-.107l-2.108-4.555a.184.184,0,0,1,.334-.154l1.929,4.167,1.49-3.725a.185.185,0,0,1,.239-.1.183.183,0,0,1,.1.239l-1.648,4.122a.186.186,0,0,1-.166.116Z" transform="translate(-136.19 -186.805)" fill="#010526" stroke="#010526" stroke-miterlimit="10" stroke-width="0.5"/>
          </g>
        </g>
      </g>
      <g id="Group_3910" data-name="Group 3910" transform="translate(70.841 42.648)">
        <path id="Path_14778" data-name="Path 14778" d="M160.35,179.63c-.132,0-.264-.006-.4-.018-2.6-.242-4.7-2.886-5.1-6.429a.184.184,0,0,1,.366-.042c.382,3.369,2.343,5.88,4.769,6.1,3.058.286,5.857-3.02,6.261-7.364s-1.749-8.1-4.8-8.384c-2.552-.239-4.987,2.024-5.917,5.5a.187.187,0,0,1-.225.13.183.183,0,0,1-.13-.225c.977-3.652,3.573-6.028,6.306-5.771,3.251.3,5.553,4.242,5.131,8.784C166.21,176.275,163.444,179.63,160.35,179.63Z" transform="translate(-146.065 -160.701)" fill="#010526" stroke="#010526" stroke-miterlimit="10" stroke-width="0.5"/>
        <path id="Path_14779" data-name="Path 14779" d="M163.683,195.882a.185.185,0,0,1-.057-.36,2.192,2.192,0,0,0,1.5-1.44l1.184-11.421a.184.184,0,1,1,.366.038l-1.191,11.457a2.555,2.555,0,0,1-1.749,1.717A.185.185,0,0,1,163.683,195.882Z" transform="translate(-148.347 -165.816)" fill="#010526" stroke="#010526" stroke-miterlimit="10" stroke-width="0.5"/>
        <path id="Path_14780" data-name="Path 14780" d="M156.854,192.308a.19.19,0,0,1-.074-.015,7.183,7.183,0,0,1-3.876-4.1.192.192,0,0,1-.01-.079l1.134-12.754a1.685,1.685,0,0,1-.4.046,1.63,1.63,0,0,1-1.143-.559,3.024,3.024,0,0,1,.161-3.971,1.651,1.651,0,0,1,1.17-.462,1.519,1.519,0,0,1,.858.322.184.184,0,0,1-.227.289,1.136,1.136,0,0,0-.649-.243,1.239,1.239,0,0,0-.9.364,2.661,2.661,0,0,0-.14,3.451,1.264,1.264,0,0,0,.88.441,1.157,1.157,0,0,0,.521-.113.184.184,0,0,1,.266.181l-1.156,13a6.824,6.824,0,0,0,3.664,3.853.184.184,0,0,1-.074.352Z" transform="translate(-145.264 -162.627)" fill="#010526" stroke="#010526" stroke-miterlimit="10" stroke-width="0.5"/>
        <path id="Path_14781" data-name="Path 14781" d="M154.114,174.312a.183.183,0,0,1-.181-.157l-.248-1.663a.183.183,0,0,1,.155-.209.18.18,0,0,1,.209.155l.248,1.663a.184.184,0,0,1-.155.209Z" transform="translate(-145.757 -163.12)" fill="#010526" stroke="#010526" stroke-miterlimit="10" stroke-width="0.5"/>
        <path id="Path_14782" data-name="Path 14782" d="M163.969,175.6a.091.091,0,0,1-.09-.075l-.481-2.506a.092.092,0,0,1,.073-.107.09.09,0,0,1,.107.073l.481,2.506a.091.091,0,0,1-.073.107Z" transform="translate(-148.319 -163.287)" fill="#010526" stroke="#010526" stroke-miterlimit="10" stroke-width="0.5"/>
        <path id="Path_14783" data-name="Path 14783" d="M149.609,170.435a1.95,1.95,0,0,0,2.244,1.979l-.7,8.128c-4.046.515-8.164-1.985-8.238-5.222s3.426-5.734,5.349-9.358c1.181-2.225,1.681-4.858,4.775-5.852a5.671,5.671,0,0,1,3.89.529c3.232-2.261,7.16.63,7.41,4.052a9.568,9.568,0,0,1-.872,4.828,19.476,19.476,0,0,1-4.914-4.83s-3.444,2.994-6.295,3.567a1.152,1.152,0,0,0-1.011-.445,1.966,1.966,0,0,0-1.391,1.256A3.488,3.488,0,0,0,149.609,170.435Z" transform="translate(-142.915 -159.837)" fill="#010526" stroke="#010526" stroke-miterlimit="10" stroke-width="0.5"/>
        <path id="Path_14784" data-name="Path 14784" d="M169.479,177.654s2.064,5.577.446,7.015a2.918,2.918,0,0,1-2.615.573l.211-4A7.529,7.529,0,0,0,169.479,177.654Z" transform="translate(-149.352 -164.538)" fill="#010526" stroke="#010526" stroke-miterlimit="10" stroke-width="0.5"/>
        <path id="Path_14785" data-name="Path 14785" d="M161.612,172.591a.092.092,0,0,1-.086-.06.876.876,0,0,0-.754-.608.851.851,0,0,0-.8.52.092.092,0,1,1-.164-.082,1.028,1.028,0,0,1,.978-.621,1.055,1.055,0,0,1,.916.727.092.092,0,0,1-.054.119A.1.1,0,0,1,161.612,172.591Z" transform="translate(-147.369 -162.977)" fill="#010526" stroke="#010526" stroke-miterlimit="10" stroke-width="0.5"/>
        <path id="Path_14786" data-name="Path 14786" d="M165.1,172.671a.1.1,0,0,1-.032-.006.092.092,0,0,1-.054-.119,1.055,1.055,0,0,1,.917-.727,1.028,1.028,0,0,1,.978.621.092.092,0,0,1-.041.124.094.094,0,0,1-.124-.042.855.855,0,0,0-.8-.52.876.876,0,0,0-.754.608A.094.094,0,0,1,165.1,172.671Z" transform="translate(-148.746 -162.998)" fill="#010526" stroke="#010526" stroke-miterlimit="10" stroke-width="0.5"/>
        <path id="Path_14787" data-name="Path 14787" d="M162.566,179.236a2.211,2.211,0,0,1-1.423-.453,2.3,2.3,0,0,1-.789-1.5.184.184,0,0,1,.367-.028,1.956,1.956,0,0,0,.655,1.246,2.11,2.11,0,0,0,1.677.332.186.186,0,0,1,.208.155.184.184,0,0,1-.155.209A3.788,3.788,0,0,1,162.566,179.236Z" transform="translate(-147.517 -164.387)" fill="#010526" stroke="#010526" stroke-miterlimit="10" stroke-width="0.5"/>
        <ellipse id="Ellipse_12" data-name="Ellipse 12" cx="1.209" cy="0.622" rx="1.209" ry="0.622" transform="translate(16.911 10.438)" fill="#010526" opacity="0.4"/>
        <ellipse id="Ellipse_13" data-name="Ellipse 13" cx="1.209" cy="0.622" rx="1.209" ry="0.622" transform="translate(11.142 10.438)" fill="#010526" opacity="0.4"/>
      </g>
    </g>
    <g id="Group_3923" data-name="Group 3923" transform="translate(275.822 72.58)">
      <g id="Group_3912" data-name="Group 3912" transform="translate(40.4 10.248)">
        <path id="Path_14788" data-name="Path 14788" d="M438.042,98.583s2.357,1.282,1.986,1.986c-.184.349-.993.221-.993.221s2.292,1.812,1.857,2.464c-.294.441-1.305-.037-1.305-.037s.772,2.041.166,2.593-1.269-.5-1.269-.5.166,1.158-.386,1.268-1.825-1.77-1.825-1.77a1.772,1.772,0,0,0,1.991-.657,3.873,3.873,0,0,0,.368-2.354,2.055,2.055,0,0,0-1.288-1.4l-.864.074-.515-1.4Z" transform="translate(-419.18 -89.69)" fill="#010526" stroke="#010526" stroke-miterlimit="10" stroke-width="0.5"/>
        <path id="Path_14789" data-name="Path 14789" d="M426.8,109.217c-3.265,0-5.921-3.714-5.921-8.279s2.656-8.272,5.921-8.272c2.748,0,5.111,2.6,5.746,6.329a.184.184,0,0,1-.15.213.179.179,0,0,1-.212-.151c-.6-3.546-2.819-6.022-5.383-6.022-3.062,0-5.553,3.545-5.553,7.9s2.49,7.911,5.553,7.911c2.436,0,4.621-2.318,5.313-5.637a.185.185,0,0,1,.361.076C431.743,106.779,429.41,109.217,426.8,109.217Z" transform="translate(-415.199 -88.129)" fill="#010526" stroke="#010526" stroke-miterlimit="10" stroke-width="0.5"/>
        <path id="Path_14790" data-name="Path 14790" d="M426.64,122.655a5.254,5.254,0,0,1-.576-.031,2.89,2.89,0,0,1-2.772-2.136l-.124-11.559a.185.185,0,0,1,.182-.186.17.17,0,0,1,.186.183l.119,11.521a2.548,2.548,0,0,0,2.448,1.812,6.812,6.812,0,0,0,6.555-3.822l.052-13.047a.185.185,0,0,1,.094-.16.187.187,0,0,1,.186,0,1.15,1.15,0,0,0,.513.162,1.351,1.351,0,0,0,1.091-.546,2.54,2.54,0,0,0,.545-1.5,2.466,2.466,0,0,0-.548-1.763,1.239,1.239,0,0,0-.861-.442,1.138,1.138,0,0,0-.668.176.184.184,0,0,1-.2-.311,1.492,1.492,0,0,1,.884-.232,1.6,1.6,0,0,1,1.115.564,2.838,2.838,0,0,1,.643,2.028,2.9,2.9,0,0,1-.63,1.713,1.685,1.685,0,0,1-1.4.679,1.572,1.572,0,0,1-.4-.083l-.051,12.8a.188.188,0,0,1-.017.077A7.266,7.266,0,0,1,426.64,122.655Z" transform="translate(-415.803 -90.268)" fill="#010526" stroke="#010526" stroke-miterlimit="10" stroke-width="0.5"/>
        <path id="Path_14791" data-name="Path 14791" d="M436.672,104.511a.18.18,0,0,1-.1-.027.184.184,0,0,1-.062-.253l.875-1.436a.184.184,0,0,1,.314.191l-.874,1.437A.186.186,0,0,1,436.672,104.511Z" transform="translate(-419.318 -90.778)" fill="#010526" stroke="#010526" stroke-miterlimit="10" stroke-width="0.5"/>
        <ellipse id="Ellipse_14" data-name="Ellipse 14" cx="0.316" cy="0.436" rx="0.316" ry="0.436" transform="translate(12.589 10.939)" fill="#010526" stroke="#010526" stroke-miterlimit="10" stroke-width="0.5"/>
        <ellipse id="Ellipse_15" data-name="Ellipse 15" cx="0.316" cy="0.436" rx="0.316" ry="0.436" transform="translate(9.178 10.939)" fill="#010526" stroke="#010526" stroke-miterlimit="10" stroke-width="0.5"/>
        <path id="Path_14792" data-name="Path 14792" d="M427.346,105.067a.109.109,0,0,1-.026,0,.093.093,0,0,1-.063-.114l.711-2.451a.094.094,0,0,1,.115-.063.092.092,0,0,1,.062.114l-.71,2.451A.093.093,0,0,1,427.346,105.067Z" transform="translate(-416.881 -90.705)" fill="#010526" stroke="#010526" stroke-miterlimit="10" stroke-width="0.5"/>
        <path id="Path_14793" data-name="Path 14793" d="M413.45,97.657c8.649,1.329,16.358,1.5,23.009.37,0,0,1.635-.37-.462-.783a115.99,115.99,0,0,0-11.969-.909C421.482,96.277,411.339,97.078,413.45,97.657Z" transform="translate(-413.163 -89.096)" fill="#fff800"/>
        <path id="Path_14794" data-name="Path 14794" d="M421.551,94.4s1.658-6.928,3.586-7.558c1.352-.441,1.787.688,3.282.772,1.462.083,1.921-1.448,3.172-1.048,1.724.551,1.269,8.55,1.269,8.55Z" transform="translate(-415.376 -86.502)" fill="#fff800"/>
        <ellipse id="Ellipse_16" data-name="Ellipse 16" cx="0.814" cy="0.983" rx="0.814" ry="0.983" transform="translate(11.782 14.783)" fill="#010526" stroke="#010526" stroke-miterlimit="10" stroke-width="0.5"/>
        <path id="Path_14795" data-name="Path 14795" d="M430.675,88.962a.091.091,0,0,1-.064-.027L429.4,87.75a.092.092,0,0,1,0-.13.094.094,0,0,1,.13,0l1.213,1.186a.092.092,0,0,1,0,.13A.094.094,0,0,1,430.675,88.962Z" transform="translate(-417.439 -86.79)" fill="#010526" stroke="#010526" stroke-miterlimit="10" stroke-width="0.5"/>
        <path id="Path_14796" data-name="Path 14796" d="M432,88.467a.093.093,0,0,1-.067-.029l-.551-.579a.092.092,0,0,1,.134-.127l.551.579a.093.093,0,0,1,0,.13A.088.088,0,0,1,432,88.467Z" transform="translate(-417.964 -86.819)" fill="#010526" stroke="#010526" stroke-miterlimit="10" stroke-width="0.5"/>
        <path id="Path_14797" data-name="Path 14797" d="M429.394,97.624c-1.206,0-2.572-.064-4.107-.191a.183.183,0,0,1-.168-.2.188.188,0,0,1,.2-.169c3.941.327,6.745.234,8.574-.286a.184.184,0,0,1,.1.355A17.358,17.358,0,0,1,429.394,97.624Z" transform="translate(-416.318 -89.213)" fill="#010526" stroke="#010526" stroke-miterlimit="10" stroke-width="0.5"/>
        <ellipse id="Ellipse_17" data-name="Ellipse 17" cx="1.209" cy="0.622" rx="1.209" ry="0.622" transform="translate(13.01 12.445)" fill="#010526" opacity="0.4"/>
        <ellipse id="Ellipse_18" data-name="Ellipse 18" cx="1.209" cy="0.622" rx="1.209" ry="0.622" transform="translate(7.241 12.445)" fill="#010526" opacity="0.4"/>
      </g>
      <g id="Group_3922" data-name="Group 3922">
        <g id="Group_3917" data-name="Group 3917" transform="translate(24.14 87.197)">
          <g id="Group_3913" data-name="Group 3913" transform="translate(7.06)">
            <path id="Path_14798" data-name="Path 14798" d="M419.748,193.348l-18.83,23.832,19.124,9.709,11.453-18.273,3.111,14.154,22.507-4.119-5.149-27.068C440.264,195.872,429.479,196.638,419.748,193.348Z" transform="translate(-400.733 -191.178)" fill="#010526" opacity="0.4"/>
            <path id="Path_14799" data-name="Path 14799" d="M403.62,221.6l10.7-18.093-13.4,16.817Z" transform="translate(-400.733 -194.325)" fill="#fff"/>
            <path id="Path_14800" data-name="Path 14800" d="M445.244,222.809a.184.184,0,0,1-.18-.146l-3.825-17.948a.183.183,0,0,1,.141-.218.18.18,0,0,1,.218.142l3.789,17.772,22.149-4.053-5.115-27.107a.185.185,0,0,1,.147-.215.182.182,0,0,1,.215.146l5.149,27.289a.185.185,0,0,1-.149.215l-22.507,4.119A.164.164,0,0,1,445.244,222.809Z" transform="translate(-411.372 -191.033)" fill="#010526" stroke="#010526" stroke-miterlimit="10" stroke-width="0.5"/>
            <path id="Path_14801" data-name="Path 14801" d="M419.976,227.654a.187.187,0,0,1-.083-.02l-19.125-9.71a.184.184,0,0,1-.1-.124.186.186,0,0,1,.035-.154l18.808-23.791a.184.184,0,0,1,.289.229L401.135,217.7l18.774,9.531,11.311-17.952a.184.184,0,0,1,.312.2l-11.4,18.094A.186.186,0,0,1,419.976,227.654Z" transform="translate(-400.667 -191.759)" fill="#010526" stroke="#010526" stroke-miterlimit="10" stroke-width="0.5"/>
          </g>
          <g id="Group_3916" data-name="Group 3916" transform="translate(0 26.259)">
            <g id="Group_3914" data-name="Group 3914">
              <path id="Path_14802" data-name="Path 14802" d="M426.934,304.9s-14.812,14.723-19.446,14.062,6.933-15.292,6.933-15.292Z" transform="translate(-395.118 -247.013)" fill="#010526" stroke="#010526" stroke-miterlimit="10" stroke-width="0.5"/>
              <path id="Path_14803" data-name="Path 14803" d="M410.38,283.544a.181.181,0,0,1-.158-.09c-.782-1.31-19.146-32.16-19.146-39.648s7.615-16.939,7.69-17.034a.184.184,0,0,1,.286.233c-.077.093-7.609,9.431-7.609,16.8,0,7.387,18.9,39.14,19.094,39.46a.184.184,0,0,1-.064.253A.189.189,0,0,1,410.38,283.544Z" transform="translate(-391.076 -226.705)" fill="#010526" stroke="#010526" stroke-miterlimit="10" stroke-width="0.5"/>
              <path id="Path_14804" data-name="Path 14804" d="M429.273,287.886a.184.184,0,0,1-.172-.119l-13.833-36.519a.186.186,0,0,1,.011-.155l6.914-12.5a.184.184,0,0,1,.322.178l-6.873,12.43,13.8,36.439a.183.183,0,0,1-.107.237A.17.17,0,0,1,429.273,287.886Z" transform="translate(-397.456 -229.816)" fill="#010526" stroke="#010526" stroke-miterlimit="10" stroke-width="0.5"/>
            </g>
            <g id="Group_3915" data-name="Group 3915" transform="translate(41.337 0.879)">
              <path id="Path_14805" data-name="Path 14805" d="M467.727,267.817a12.005,12.005,0,0,1-1.382-.079,7.748,7.748,0,0,1-5.7-3.008c-2.023-3.043-12.941-29.647-13.4-30.778a.184.184,0,1,1,.341-.139c.113.277,11.367,27.7,13.37,30.712a7.388,7.388,0,0,0,5.433,2.847,12.855,12.855,0,0,0,10.028-3.319c3.891-3.663,16.9-23.6,17.036-23.8a.184.184,0,1,1,.308.2c-.535.822-13.169,20.172-17.093,23.864A13.275,13.275,0,0,1,467.727,267.817Z" transform="translate(-447.23 -229.43)" fill="#010526" stroke="#010526" stroke-miterlimit="10" stroke-width="0.5"/>
              <path id="Path_14806" data-name="Path 14806" d="M480.2,252.17a.185.185,0,0,1-.18-.141l-5.535-23.086a.184.184,0,0,1,.358-.086l5.536,23.086a.184.184,0,0,1-.136.222A.17.17,0,0,1,480.2,252.17Z" transform="translate(-454.421 -228.115)" fill="#010526" stroke="#010526" stroke-miterlimit="10" stroke-width="0.5"/>
              <path id="Path_14807" data-name="Path 14807" d="M480.787,247.5a.188.188,0,0,1-.134-.057.185.185,0,0,1,.007-.261l19.86-18.83a.184.184,0,0,1,.253.267l-19.86,18.83A.182.182,0,0,1,480.787,247.5Z" transform="translate(-456.036 -228.006)" fill="#010526" stroke="#010526" stroke-miterlimit="10" stroke-width="0.5"/>
              <path id="Path_14808" data-name="Path 14808" d="M509.517,239.01s2.427,10.7,5.3,10.923-.33-17.929-3.586-21.294c-1.3-1.346-3.42-.442-3.42-.442Z" transform="translate(-463.214 -227.899)" fill="#010526" stroke="#010526" stroke-miterlimit="10" stroke-width="0.5"/>
              <path id="Path_14809" data-name="Path 14809" d="M481.7,254.2l10.141-14.169-10.9,10.21Z" transform="translate(-456.123 -231.101)" fill="#010526" stroke="#010526" stroke-miterlimit="10" stroke-width="0.5"/>
              <path id="Path_14810" data-name="Path 14810" d="M475.827,273.983h-.2a.184.184,0,0,1,0-.368h0a7.8,7.8,0,0,0,6.934-3.259.184.184,0,1,1,.3.216A8.2,8.2,0,0,1,475.827,273.983Z" transform="translate(-454.675 -239.082)" fill="#010526" stroke="#010526" stroke-miterlimit="10" stroke-width="0.5"/>
            </g>
          </g>
        </g>
        <g id="Group_3921" data-name="Group 3921">
          <g id="Group_3918" data-name="Group 3918" transform="translate(89.94 40.156)">
            <path id="Path_14811" data-name="Path 14811" d="M521.372,191.8s2.485,1.511,3.095,1.067-3.173-4.02-3.173-4.02,5.258,3.5,6.256,2.641-2.37-2.926-2.37-2.926,1.807,1.068,2.471.275-1.979-2.3-1.979-2.3,1.364.77,1.834.424-3.1-3.378-3.1-3.378l-4.767-.207-1.968,4.275Z" transform="translate(-490.279 -141.972)" fill="#fff"/>
            <path id="Path_14812" data-name="Path 14812" d="M519.277,172.472c-1.345,0-4.982-2.836-5.408-3.171a.184.184,0,0,1,.228-.289c1.682,1.326,4.446,3.249,5.256,3.085a.137.137,0,0,0,.107-.068c.077-.6-4.291-4.445-8.562-7.813a.194.194,0,0,1-.059-.082c-.1-.264-9.643-26.48-11.148-28.943-1.488-2.435-11.706-7.662-11.808-7.714a.184.184,0,1,1,.166-.328c.425.216,10.414,5.327,11.955,7.849,1.507,2.465,10.567,27.322,11.164,28.96,2.792,2.2,9.118,7.34,8.615,8.248a.506.506,0,0,1-.359.25A.717.717,0,0,1,519.277,172.472Z" transform="translate(-482.393 -127.131)" fill="#010526" stroke="#010526" stroke-miterlimit="10" stroke-width="0.5"/>
            <path id="Path_14813" data-name="Path 14813" d="M527.81,189.941c-2,0-6.745-3.884-6.955-4.056a.184.184,0,1,1,.234-.284c1.453,1.2,5.517,4.241,6.895,3.957a.437.437,0,0,0,.328-.234c.241-.463-.9-1.417-1.494-1.806a.184.184,0,0,1,.2-.308c.213.141,2.075,1.4,1.617,2.284a.8.8,0,0,1-.581.425A1.256,1.256,0,0,1,527.81,189.941Z" transform="translate(-491.102 -142.548)" fill="#010526" stroke="#010526" stroke-miterlimit="10" stroke-width="0.5"/>
            <path id="Path_14814" data-name="Path 14814" d="M503.211,172.676a.184.184,0,0,1-.156-.086l-15.842-25.281-6.635-2.648a.185.185,0,0,1-.1-.239.188.188,0,0,1,.239-.1l6.692,2.67a.186.186,0,0,1,.088.074l15.874,25.332a.184.184,0,0,1-.058.254A.182.182,0,0,1,503.211,172.676Z" transform="translate(-480.461 -131.663)" fill="#010526" stroke="#010526" stroke-miterlimit="10" stroke-width="0.5"/>
            <path id="Path_14815" data-name="Path 14815" d="M523.425,194.4c-1.039,0-3.955-1.57-6.8-4.023a12.307,12.307,0,0,1-1.77-2.044.184.184,0,0,1,.3-.219,12.046,12.046,0,0,0,1.714,1.984c3.318,2.856,6.412,4.211,6.689,3.91.45-.889-4.405-4.864-5.4-5.544a.184.184,0,0,1,.208-.3c.2.138,1.714,1.3,3.121,2.584,2.529,2.314,2.578,3.066,2.394,3.43a.406.406,0,0,1-.3.213A.76.76,0,0,1,523.425,194.4Z" transform="translate(-489.526 -143.203)" fill="#010526" stroke="#010526" stroke-miterlimit="10" stroke-width="0.5"/>
            <path id="Path_14816" data-name="Path 14816" d="M527.476,193.115c-.829,0-2.852-.758-8.133-4.523l-.2-.14a.184.184,0,0,1,.212-.3l.2.143c6.838,4.874,8.006,4.534,8.2,4.353.22-.858-1.209-2.006-1.786-2.381a.184.184,0,1,1,.2-.308c.095.062,2.333,1.532,1.927,2.833a.191.191,0,0,1-.028.056A.631.631,0,0,1,527.476,193.115Zm.443-.38h0Z" transform="translate(-490.648 -143.223)" fill="#010526" stroke="#010526" stroke-miterlimit="10" stroke-width="0.5"/>
            <path id="Path_14817" data-name="Path 14817" d="M512.339,191.78a.6.6,0,0,1-.2-.035c-.649-.231-.876-5.9-.954-9.252a.184.184,0,0,1,.18-.188.2.2,0,0,1,.188.18c.1,4.119.4,8.586.735,8.929a.37.37,0,0,0,.041,0,.424.424,0,0,0,.251-.1c.679-.509,1.35-2.536,1.226-4.632a.184.184,0,0,1,.173-.2.179.179,0,0,1,.2.173c.131,2.246-.6,4.372-1.374,4.948A.764.764,0,0,1,512.339,191.78Z" transform="translate(-488.568 -141.689)" fill="#010526" stroke="#010526" stroke-miterlimit="10" stroke-width="0.5"/>
            <path id="Path_14818" data-name="Path 14818" d="M503.2,140.15h-.026c-.088-.013-2.157-.321-2.611-1.4a.184.184,0,0,1,.339-.143c.31.736,1.783,1.1,2.323,1.177a.184.184,0,0,1-.026.366Z" transform="translate(-485.762 -130.129)" fill="#010526" stroke="#010526" stroke-miterlimit="10" stroke-width="0.5"/>
          </g>
          <g id="Group_3919" data-name="Group 3919">
            <path id="Path_14819" data-name="Path 14819" d="M370.2,128.56c-3.371,0-6.85-.222-8.563-1.012a5.432,5.432,0,0,1-2.97-3.153c-.788-2.187-.372-5.082,1.2-8.371,1.232-2.574,13.88-26.276,14.492-27.42-.015-2.948.034-12.32,1.243-12.645a.533.533,0,0,1,.487.1c1.018.813.834,6.194.81,6.8a.187.187,0,0,1-.191.177.185.185,0,0,1-.177-.191c.089-2.236-.015-5.978-.671-6.5a.164.164,0,0,0-.161-.038c-.64.173-1,6.537-.972,12.335a.18.18,0,0,1-.022.088c-.132.248-13.253,24.831-14.506,27.448-1.531,3.2-1.943,5.994-1.188,8.087a5.076,5.076,0,0,0,2.777,2.943c3.737,1.725,16.692.628,16.823.616a.184.184,0,0,1,.032.367C378.352,128.222,374.362,128.56,370.2,128.56Z" transform="translate(-358.282 -73.466)" fill="#010526" stroke="#010526" stroke-miterlimit="10" stroke-width="0.5"/>
            <path id="Path_14820" data-name="Path 14820" d="M385.236,82.767a.185.185,0,0,1-.184-.184c0-4.046-.431-8.284-1.138-8.373-.441-.055-.832,1.207-.955,2.077a.188.188,0,0,1-.208.156.183.183,0,0,1-.156-.208c.059-.42.406-2.516,1.365-2.39,1.346.169,1.458,6.73,1.46,8.737a.184.184,0,0,1-.184.185Z" transform="translate(-364.697 -72.912)" fill="#010526" stroke="#010526" stroke-miterlimit="10" stroke-width="0.5"/>
            <path id="Path_14821" data-name="Path 14821" d="M384.223,120.725h0l-4.953-.062a.187.187,0,0,1-.147-.075.191.191,0,0,1-.027-.163l7.556-24.8a.185.185,0,0,1,.23-.122.183.183,0,0,1,.122.23L379.517,120.3l4.708.058a.184.184,0,0,1,0,.368Z" transform="translate(-363.772 -78.627)" fill="#010526" stroke="#010526" stroke-miterlimit="10" stroke-width="0.5"/>
            <path id="Path_14822" data-name="Path 14822" d="M390.482,86.866a.164.164,0,0,1-.032,0,.183.183,0,0,1-.149-.213l.124-.7c.193-1.076.392-2.189.521-3.245l.012-.094c.429-3.484.835-6.775.226-7.5a.317.317,0,0,0-.236-.125h0c-.011,0-.043.014-.094.067-.82.872-1.767,7.1-1.71,7.6a.184.184,0,0,1-.162.2.179.179,0,0,1-.2-.162c-.056-.488.822-6.846,1.807-7.894a.505.505,0,0,1,.381-.182.677.677,0,0,1,.5.256c.711.848.334,3.907-.143,7.781l-.012.094c-.13,1.065-.331,2.183-.524,3.265l-.124.7A.183.183,0,0,1,390.482,86.866Z" transform="translate(-366.328 -73.118)" fill="#010526" stroke="#010526" stroke-miterlimit="10" stroke-width="0.5"/>
            <path id="Path_14823" data-name="Path 14823" d="M386.174,82.392a.184.184,0,0,1-.184-.182c0-.334-.074-8.195,1.31-9.436a.686.686,0,0,1,.551-.19.512.512,0,0,1,.351.184c.667.749.515,3.916.283,7.376-.058.864-.118,1.759-.088,1.926a.194.194,0,0,1,.016.067.185.185,0,0,1-.308.16.19.19,0,0,1-.051-.093l0-.011a10.694,10.694,0,0,1,.068-2.074c.15-2.241.428-6.411-.191-7.106a.151.151,0,0,0-.107-.063.322.322,0,0,0-.275.1c-1.046.938-1.212,6.928-1.187,9.157a.184.184,0,0,1-.182.186Z" transform="translate(-365.593 -72.58)" fill="#010526" stroke="#010526" stroke-miterlimit="10" stroke-width="0.5"/>
            <path id="Path_14824" data-name="Path 14824" d="M389.459,93.491a.184.184,0,0,1-.127-.317c.026-.024,2.59-2.48,3.577-3.325l.076-.065c.979-.838,2.2-1.882,2.128-2.3-.033-.192-.227-.359-.531-.459a3.78,3.78,0,0,0-3.5,1.227.184.184,0,1,1-.257-.264,4.089,4.089,0,0,1,3.875-1.313,1.033,1.033,0,0,1,.78.748c.1.59-.791,1.387-2.251,2.638l-.075.065c-.979.838-3.536,3.287-3.562,3.312A.184.184,0,0,1,389.459,93.491Z" transform="translate(-366.46 -76.27)" fill="#010526" stroke="#010526" stroke-miterlimit="10" stroke-width="0.5"/>
            <path id="Path_14825" data-name="Path 14825" d="M364.531,142.033h-.023c-2.47-.308-2.8-3.223-2.808-3.252a.185.185,0,0,1,.163-.2.188.188,0,0,1,.2.163c.011.108.308,2.654,2.487,2.926a.184.184,0,0,1-.024.367Z" transform="translate(-359.184 -89.994)" fill="#010526" stroke="#010526" stroke-miterlimit="10" stroke-width="0.5"/>
          </g>
          <g id="Group_3920" data-name="Group 3920" transform="translate(20.251 32.915)">
            <path id="Path_14826" data-name="Path 14826" d="M435.182,182.165a31.959,31.959,0,0,1-11.9-2.062.182.182,0,0,1-.11-.128l-8.606-36.409a.184.184,0,0,1,.137-.222.18.18,0,0,1,.221.136L423.5,179.8c12.921,5.149,30.381-1.195,31.889-1.762,1.483-13.512-3.528-36.838-3.578-37.073a.183.183,0,0,1,.141-.219.186.186,0,0,1,.219.141c.051.236,5.1,23.749,3.572,37.3a.182.182,0,0,1-.115.151A63.894,63.894,0,0,1,435.182,182.165Zm20.381-4h0Z" transform="translate(-393.382 -123.48)" fill="#010526" stroke="#010526" stroke-miterlimit="10" stroke-width="0.5"/>
            <path id="Path_14827" data-name="Path 14827" d="M468.078,139.065a.191.191,0,0,1-.066-.012l-10.2-3.938a.184.184,0,0,1,.133-.343l10.036,3.873,6.039-14.019c-1.575-.766-14.459-6.965-18.738-6.965-4.548,0-18.827,5.294-18.97,5.348a.184.184,0,0,1-.128-.345c.589-.219,14.484-5.371,19.1-5.371s18.47,6.791,19.058,7.08a.183.183,0,0,1,.088.238l-6.178,14.343A.183.183,0,0,1,468.078,139.065Z" transform="translate(-399.057 -117.293)" fill="#010526" stroke="#010526" stroke-miterlimit="10" stroke-width="0.5"/>
            <path id="Path_14828" data-name="Path 14828" d="M385.976,144.927a.183.183,0,0,1-.184-.184V128.125a.184.184,0,0,1,.18-.184l27.634-.69a.2.2,0,0,1,.188.179.185.185,0,0,1-.18.189l-27.454.686v16.245l21.728-1.168h.01a.184.184,0,0,1,.01.368l-21.923,1.179Z" transform="translate(-385.792 -119.92)" fill="#010526" stroke="#010526" stroke-miterlimit="10" stroke-width="0.5"/>
            <path id="Path_14829" data-name="Path 14829" d="M439.329,179.205a.183.183,0,0,1-.179-.143c-3.045-13.083-7.592-37.93-9.179-49.094a.184.184,0,0,1,.364-.052c1.419,9.981,5.9,34.979,9.173,49.063a.183.183,0,0,1-.137.221A.165.165,0,0,1,439.329,179.205Z" transform="translate(-397.449 -120.582)" fill="#010526" stroke="#010526" stroke-miterlimit="10" stroke-width="0.5"/>
            <path id="Path_14830" data-name="Path 14830" d="M430.763,131.133a.184.184,0,0,1-.13-.315l8.256-8.187a.184.184,0,0,1,.258.261l-8.256,8.187A.185.185,0,0,1,430.763,131.133Z" transform="translate(-397.61 -118.688)" fill="#010526" stroke="#010526" stroke-miterlimit="10" stroke-width="0.5"/>
            <path id="Path_14831" data-name="Path 14831" d="M431.795,134.537a.184.184,0,0,1-.127-.317l15.58-14.927a.184.184,0,1,1,.255.266l-15.58,14.927A.186.186,0,0,1,431.795,134.537Z" transform="translate(-397.882 -117.807)" fill="#010526" stroke="#010526" stroke-miterlimit="10" stroke-width="0.5"/>
            <path id="Path_14832" data-name="Path 14832" d="M432.64,138.415a.188.188,0,0,1-.133-.056.184.184,0,0,1,.006-.261l21.468-20.6a.184.184,0,0,1,.255.266l-21.468,20.6A.182.182,0,0,1,432.64,138.415Z" transform="translate(-398.105 -117.333)" fill="#010526" stroke="#010526" stroke-miterlimit="10" stroke-width="0.5"/>
            <path id="Path_14833" data-name="Path 14833" d="M433.656,142.9a.184.184,0,0,1-.129-.315l24.642-24.178a.184.184,0,1,1,.258.263l-24.642,24.178A.182.182,0,0,1,433.656,142.9Z" transform="translate(-398.373 -117.573)" fill="#010526" stroke="#010526" stroke-miterlimit="10" stroke-width="0.5"/>
            <path id="Path_14834" data-name="Path 14834" d="M434.855,147.428a.184.184,0,0,1-.13-.315L462.078,120.1a.184.184,0,0,1,.259.261l-27.353,27.015A.181.181,0,0,1,434.855,147.428Z" transform="translate(-398.689 -118.019)" fill="#010526" stroke="#010526" stroke-miterlimit="10" stroke-width="0.5"/>
            <path id="Path_14835" data-name="Path 14835" d="M435.866,152.243a.182.182,0,0,1-.131-.056.184.184,0,0,1,0-.26l30.568-29.786a.184.184,0,0,1,.257.264l-30.567,29.786A.186.186,0,0,1,435.866,152.243Z" transform="translate(-398.956 -118.558)" fill="#010526" stroke="#010526" stroke-miterlimit="10" stroke-width="0.5"/>
            <path id="Path_14836" data-name="Path 14836" d="M436.93,157a.184.184,0,0,1-.129-.316l33.315-32.446a.184.184,0,0,1,.257.264l-33.315,32.446A.187.187,0,0,1,436.93,157Z" transform="translate(-399.237 -119.112)" fill="#010526" stroke="#010526" stroke-miterlimit="10" stroke-width="0.5"/>
            <path id="Path_14837" data-name="Path 14837" d="M437.991,167.028a.181.181,0,0,1-.131-.055.185.185,0,0,1,0-.261l20.9-20.383a.184.184,0,1,1,.258.264l-20.9,20.384A.185.185,0,0,1,437.991,167.028Z" transform="translate(-399.517 -124.941)" fill="#010526" stroke="#010526" stroke-miterlimit="10" stroke-width="0.5"/>
            <path id="Path_14838" data-name="Path 14838" d="M469.958,138.72a.188.188,0,0,1-.133-.056.185.185,0,0,1,0-.261l12.26-11.925a.184.184,0,1,1,.256.264l-12.26,11.925A.183.183,0,0,1,469.958,138.72Z" transform="translate(-407.952 -119.703)" fill="#010526" stroke="#010526" stroke-miterlimit="10" stroke-width="0.5"/>
            <path id="Path_14839" data-name="Path 14839" d="M439.26,172.54a.184.184,0,0,1-.129-.316l20.677-20.257a.184.184,0,0,1,.257.263l-20.677,20.257A.184.184,0,0,1,439.26,172.54Z" transform="translate(-399.852 -126.428)" fill="#010526" stroke="#010526" stroke-miterlimit="10" stroke-width="0.5"/>
            <path id="Path_14840" data-name="Path 14840" d="M474.933,142.475a.184.184,0,0,1-.13-.314l6.779-6.694a.184.184,0,1,1,.258.262l-6.779,6.694A.182.182,0,0,1,474.933,142.475Z" transform="translate(-409.265 -122.074)" fill="#010526" stroke="#010526" stroke-miterlimit="10" stroke-width="0.5"/>
            <path id="Path_14841" data-name="Path 14841" d="M440.317,178.235a.184.184,0,0,1-.129-.315l20.6-20.281a.184.184,0,0,1,.258.262l-20.6,20.281A.184.184,0,0,1,440.317,178.235Z" transform="translate(-400.131 -127.925)" fill="#010526" stroke="#010526" stroke-miterlimit="10" stroke-width="0.5"/>
            <path id="Path_14842" data-name="Path 14842" d="M441.609,184.111a.184.184,0,0,1-.127-.316l20.342-19.634a.184.184,0,1,1,.256.265l-20.342,19.633A.183.183,0,0,1,441.609,184.111Z" transform="translate(-400.472 -129.646)" fill="#010526" stroke="#010526" stroke-miterlimit="10" stroke-width="0.5"/>
            <path id="Path_14843" data-name="Path 14843" d="M442.906,189.757a.181.181,0,0,1-.132-.057.184.184,0,0,1,0-.26l19.869-19.188a.184.184,0,1,1,.255.264L443.034,189.7A.184.184,0,0,1,442.906,189.757Z" transform="translate(-400.814 -131.253)" fill="#010526" stroke="#010526" stroke-miterlimit="10" stroke-width="0.5"/>
            <path id="Path_14844" data-name="Path 14844" d="M450.068,191.09a.184.184,0,0,1-.128-.316l14.909-14.553a.184.184,0,0,1,.258.264L450.2,191.037A.183.183,0,0,1,450.068,191.09Z" transform="translate(-402.704 -132.828)" fill="#010526" stroke="#010526" stroke-miterlimit="10" stroke-width="0.5"/>
            <path id="Path_14845" data-name="Path 14845" d="M459.106,191.926a.184.184,0,0,1-.128-.316l8.429-8.257a.184.184,0,1,1,.257.264l-8.429,8.256A.182.182,0,0,1,459.106,191.926Z" transform="translate(-405.089 -134.71)" fill="#010526" stroke="#010526" stroke-miterlimit="10" stroke-width="0.5"/>
            <path id="Path_14846" data-name="Path 14846" d="M412.486,147l1.1-7.431,1.477,7.288Z" transform="translate(-392.836 -123.171)" fill="#010526" stroke="#010526" stroke-miterlimit="10" stroke-width="0.5"/>
          </g>
        </g>
      </g>
    </g>
    <g id="Group_3935" data-name="Group 3935" transform="translate(168.244 137.665)">
      <g id="Group_3927" data-name="Group 3927" transform="translate(0 27.181)">
        <g id="Group_3924" data-name="Group 3924" transform="translate(28.734)">
          <path id="Path_14847" data-name="Path 14847" d="M251.285,221.658s16.374-20.2,20.986-21.617,18.792-1.084,18.792-1.084,2.413,4,6.41,3.678c3.033-.241,3.137-1.774,3.137-1.774s6.658,1.661,8.808,3.168,21.826,19.517,21.826,19.517l-10.008,11.719-13.916-11.929s-.035,9.007,1.07,11.493,4.312,12.782,3.869,14.479c0,0-24.221.925-29.953,6.191-5.277,4.847-6.112,11.211-7.749,11.049s-4.58-6.432-4.719-20.941,1.678-20.989,1.678-20.989l-10.366,8.79Z" transform="translate(-251.101 -198.671)" fill="#010526" opacity="0.4"/>
          <path id="Path_14848" data-name="Path 14848" d="M259.5,214.73s13.084-11.759,15.818-12.377,19.138-1.675,19.138-1.675l-1.249-1.715s-15.955-.268-19.28,1.368C270.629,201.951,259.5,214.73,259.5,214.73Z" transform="translate(-253.268 -198.677)" fill="#fff"/>
          <path id="Path_14849" data-name="Path 14849" d="M338.948,236.087a.184.184,0,0,1-.12-.044l-14.06-11.962a.183.183,0,0,1-.021-.259.186.186,0,0,1,.26-.021l13.92,11.841,9.632-11.476c-1.673-1.561-19.1-17.8-21.669-19.376-2.673-1.645-8.823-3.2-8.884-3.212a.182.182,0,0,1-.133-.223.179.179,0,0,1,.222-.133c.255.063,6.267,1.58,8.987,3.255s21.075,18.81,21.856,19.538a.185.185,0,0,1,.015.253l-9.863,11.752a.186.186,0,0,1-.126.065Z" transform="translate(-268.67 -199.276)" fill="#010526" stroke="#010526" stroke-miterlimit="10" stroke-width="0.5"/>
          <path id="Path_14850" data-name="Path 14850" d="M261.083,233.5h-.015a.188.188,0,0,1-.126-.065l-9.863-11.752a.185.185,0,0,1,0-.236c.662-.807,16.245-19.786,21.062-21.67,4.1-1.6,18.289-1.144,18.891-1.124a.184.184,0,0,1,.177.19.18.18,0,0,1-.191.178c-.145-.006-14.718-.476-18.745,1.1-4.535,1.774-19.461,19.8-20.814,21.444l9.645,11.493,13.921-11.842a.184.184,0,0,1,.239.28L261.2,233.46A.182.182,0,0,1,261.083,233.5Z" transform="translate(-251.036 -198.58)" fill="#010526" stroke="#010526" stroke-miterlimit="10" stroke-width="0.5"/>
          <path id="Path_14851" data-name="Path 14851" d="M281.063,272.887a1.043,1.043,0,0,1-.568-.181c-2.432-1.561-4.463-13.561-4.1-24.228.415-12.257,1.494-17.339,1.505-17.389a.184.184,0,0,1,.359.078c-.011.049-1.083,5.108-1.5,17.324-.383,11.27,1.843,22.565,3.932,23.906a.59.59,0,0,0,.629.057c.816-.409,1.4-1.637,2.15-3.193,1.48-3.092,3.508-7.328,9.191-9.823,8.069-3.542,24.214-3.963,26.121-4-.061-2.627-1.419-6.608-2.621-10.131-.719-2.111-1.4-4.1-1.721-5.574-.679-3.1-1.1-16.334-1.12-16.9a.185.185,0,0,1,.178-.19.188.188,0,0,1,.19.179c0,.137.44,13.758,1.112,16.828.317,1.45.993,3.433,1.71,5.534,1.238,3.631,2.643,7.748,2.643,10.432a.185.185,0,0,1-.182.184c-.177,0-17.69.253-26.161,3.971-5.558,2.44-7.552,6.6-9.007,9.646-.776,1.619-1.388,2.9-2.317,3.363A.943.943,0,0,1,281.063,272.887ZM318.97,255.62h0Z" transform="translate(-257.715 -204.931)" fill="#010526" stroke="#010526" stroke-miterlimit="10" stroke-width="0.5"/>
          <path id="Path_14852" data-name="Path 14852" d="M317.563,245.207a.184.184,0,0,1-.093-.343,9.1,9.1,0,0,1,6.708-.8.184.184,0,0,1,.122.23.187.187,0,0,1-.23.122,8.881,8.881,0,0,0-6.414.771A.181.181,0,0,1,317.563,245.207Z" transform="translate(-268.541 -210.492)" fill="#010526" stroke="#010526" stroke-miterlimit="10" stroke-width="0.5"/>
          <path id="Path_14853" data-name="Path 14853" d="M314.354,250.171a.184.184,0,0,1-.074-.353c3.664-1.586,6.744-2.049,9.69-1.455a.184.184,0,0,1,.144.217.18.18,0,0,1-.217.144c-2.866-.578-5.877-.122-9.47,1.433A.2.2,0,0,1,314.354,250.171Z" transform="translate(-267.694 -211.65)" fill="#010526" stroke="#010526" stroke-miterlimit="10" stroke-width="0.5"/>
        </g>
        <g id="Group_3925" data-name="Group 3925" transform="translate(0 23.565)">
          <path id="Path_14854" data-name="Path 14854" d="M233.006,272.282a.179.179,0,0,1-.113-.039.183.183,0,0,1-.032-.258L251.2,248.376l4.2-3.957a.182.182,0,0,1,.259.007.184.184,0,0,1-.007.26l-4.185,3.936-18.318,23.589A.182.182,0,0,1,233.006,272.282Z" transform="translate(-217.496 -234.227)" fill="#010526" stroke="#010526" stroke-miterlimit="10" stroke-width="0.5"/>
          <path id="Path_14855" data-name="Path 14855" d="M244.414,240.622a.184.184,0,0,1-.008-.368c.547-.023,2.048-.236,2.43-.938a.184.184,0,0,1,.324.177c-.561,1.026-2.649,1.126-2.738,1.129Z" transform="translate(-220.506 -232.869)" fill="#010526" stroke="#010526" stroke-miterlimit="10" stroke-width="0.5"/>
          <path id="Path_14856" data-name="Path 14856" d="M223.646,286.41s-2.806,1.961-3.168,2.2-5.16,2.7-5.779,1.815,3.365-3.053,3.365-3.053-5.54,2.457-5.813,1.564c-.372-1.215,3.007-2.71,3.007-2.71s-2.877,1.029-2.841.062,1.936-1.782,1.936-1.782-1.37.412-1.605-.065,4.14-3.465,4.14-3.465l5.643,1.72Z" transform="translate(-212.06 -243.888)" fill="#fff"/>
          <path id="Path_14857" data-name="Path 14857" d="M213.32,271.553a.885.885,0,0,1-.445-.088.383.383,0,0,1-.189-.3c-.078-1.02,7.126-5.793,9.413-7.282.754-1.562,12.269-25.392,14.015-27.693a55.191,55.191,0,0,1,5.275-5.545.184.184,0,1,1,.249.272,54.6,54.6,0,0,0-5.23,5.5c-1.745,2.3-13.877,27.423-14,27.676a.188.188,0,0,1-.066.074c-4.548,2.957-9.266,6.376-9.29,6.976.2.328,2.947-.482,5.9-1.73a.184.184,0,1,1,.144.339C218.308,270.077,214.737,271.553,213.32,271.553Z" transform="translate(-212.182 -230.593)" fill="#010526" stroke="#010526" stroke-miterlimit="10" stroke-width="0.5"/>
          <path id="Path_14858" data-name="Path 14858" d="M213.113,288a1.187,1.187,0,0,1-.6-.124.558.558,0,0,1-.276-.48c-.031-.947,1.6-1.812,1.782-1.907a.184.184,0,1,1,.168.328c-.446.23-1.6.96-1.582,1.568a.192.192,0,0,0,.1.176c.8.477,4.955-1.22,7.387-2.4a.184.184,0,1,1,.161.331C219.666,285.769,215.032,288,213.113,288Z" transform="translate(-212.063 -244.984)" fill="#010526" stroke="#010526" stroke-miterlimit="10" stroke-width="0.5"/>
          <path id="Path_14859" data-name="Path 14859" d="M215.984,292.2a1.171,1.171,0,0,1-.347-.044.44.44,0,0,1-.3-.255c-.2-.533.23-1.608,6.34-4.776.126-.065.213-.11.252-.131a.184.184,0,1,1,.177.322c-.04.022-.129.069-.258.135-6.055,3.138-6.25,4.1-6.166,4.317,0,0,.018.021.067.036.7.227,3.776-.793,6.978-2.9a11.7,11.7,0,0,0,2.888-2.53.184.184,0,1,1,.28.239,12.041,12.041,0,0,1-2.965,2.6C220.079,291.087,217.2,292.2,215.984,292.2Z" transform="translate(-212.873 -245.293)" fill="#010526" stroke="#010526" stroke-miterlimit="10" stroke-width="0.5"/>
          <path id="Path_14860" data-name="Path 14860" d="M212.715,290.979a1.142,1.142,0,0,1-.371-.052.528.528,0,0,1-.318-.269c-.287-1.377,2.05-2.592,2.15-2.643a.184.184,0,1,1,.168.328c-.607.311-2.141,1.31-1.973,2.191,0-.013.025.022.094.046,1.014.361,5.57-1.884,7.514-2.84.675-.332,1-.492,1.116-.527l.017,0a.183.183,0,0,1,.155.33.189.189,0,0,1-.09.035c-.13.051-.553.259-1.036.5C217.039,289.6,214.031,290.978,212.715,290.979Z" transform="translate(-212.002 -245.528)" fill="#010526" stroke="#010526" stroke-miterlimit="10" stroke-width="0.5"/>
          <path id="Path_14861" data-name="Path 14861" d="M230.409,290.3a.622.622,0,0,1-.369-.132c-.684-.511-1.193-2.662-.828-4.935a.183.183,0,0,1,.212-.152.185.185,0,0,1,.152.211c-.357,2.219.166,4.2.684,4.58a.2.2,0,0,0,.232.038c.331-.16.789-1.423.952-3.187.119-1.285.33-4.727.331-4.762a.184.184,0,1,1,.368.024c0,.034-.213,3.481-.333,4.773-.105,1.137-.467,3.151-1.159,3.484A.554.554,0,0,1,230.409,290.3Z" transform="translate(-216.511 -244.103)" fill="#010526" stroke="#010526" stroke-miterlimit="10" stroke-width="0.5"/>
        </g>
        <g id="Group_3926" data-name="Group 3926" transform="translate(98.828 25.934)">
          <path id="Path_14862" data-name="Path 14862" d="M408.856,272.936c-.881,0-2.057-1.142-2.2-1.288a.184.184,0,0,1,.261-.26c.551.548,1.61,1.35,2.113,1.151.183-.4-1.651-3.71-3.469-6.534a.184.184,0,0,1,.309-.2c.635.986,3.785,5.949,3.488,6.864a.334.334,0,0,1-.194.214A.844.844,0,0,1,408.856,272.936Z" transform="translate(-361.895 -242.23)" fill="#010526" stroke="#010526" stroke-miterlimit="10" stroke-width="0.5"/>
          <path id="Path_14863" data-name="Path 14863" d="M411.7,272.721c-1.006,0-2.2-1.483-2.349-1.672a.184.184,0,0,1,.29-.228c.378.481,1.606,1.782,2.267,1.493a.155.155,0,0,0,.018-.045c.111-.388-.252-1.971-3.932-8.21-.118-.2-.2-.333-.224-.384l-.007-.012a.183.183,0,0,1,.29-.222.192.192,0,0,1,.053.082l.2.348c2.9,4.917,4.2,7.7,3.969,8.5a.428.428,0,0,1-.212.275A.9.9,0,0,1,411.7,272.721Z" transform="translate(-362.475 -241.615)" fill="#010526" stroke="#010526" stroke-miterlimit="10" stroke-width="0.5"/>
          <path id="Path_14864" data-name="Path 14864" d="M357.5,252.948a.184.184,0,0,1-.184-.184,1.511,1.511,0,0,0-1.181-1.438.184.184,0,0,1-.138-.22.18.18,0,0,1,.219-.139,1.9,1.9,0,0,1,1.469,1.8A.185.185,0,0,1,357.5,252.948Z" transform="translate(-348.825 -238.336)" fill="#010526" stroke="#010526" stroke-miterlimit="10" stroke-width="0.5"/>
          <path id="Path_14865" data-name="Path 14865" d="M389.234,250.791l4.46,1.988,1.719,9.456-.948-1.13-5.714-1.61Z" transform="translate(-357.468 -238.291)" fill="#fff"/>
          <path id="Path_14866" data-name="Path 14866" d="M348.569,245.943l6.35-11.164-8.3,10.048Z" transform="translate(-346.35 -234.065)" fill="#010526" stroke="#010526" stroke-miterlimit="10" stroke-width="0.5"/>
          <path id="Path_14867" data-name="Path 14867" d="M391.281,268.255c-1.164,0-6.444-5.812-8.129-7.7l-29.945-8.012a.171.171,0,0,1-.048-.021l-6.815-4.094a.184.184,0,0,1,.189-.315l6.794,4.08,29.973,8.02a.177.177,0,0,1,.09.055c3.367,3.776,7.187,7.623,7.843,7.623h.023c.2-.553-1.57-3.328-2.884-5.128a.184.184,0,0,1,.3-.216c.547.749,3.259,4.535,2.949,5.446a.387.387,0,0,1-.261.253A.272.272,0,0,1,391.281,268.255Z" transform="translate(-346.255 -237.577)" fill="#010526" stroke="#010526" stroke-miterlimit="10" stroke-width="0.5"/>
          <path id="Path_14868" data-name="Path 14868" d="M400.563,261.436c-.648,0-2.049-.9-5.662-5.316-.088-.108-.149-.184-.178-.217a.184.184,0,0,1,.279-.24c.03.035.093.112.185.225,4.315,5.283,5.3,5.278,5.493,5.149.265-.345-1.389-3.524-4.515-6.752-2.183-2.253-6.529-3.72-6.573-3.734l-26.9-13.105-4.405-3.3a.185.185,0,0,1,.222-.3l4.375,3.285,26.843,13.078c.16.051,4.453,1.5,6.7,3.818,2.732,2.822,4.73,6.083,4.625,7a.407.407,0,0,1-.176.314A.563.563,0,0,1,400.563,261.436Z" transform="translate(-349.411 -233.81)" fill="#010526" stroke="#010526" stroke-miterlimit="10" stroke-width="0.5"/>
        </g>
      </g>
      <g id="Group_3933" data-name="Group 3933" transform="translate(36.282 77.687)">
        <g id="Group_3928" data-name="Group 3928" transform="translate(18.846)">
          <path id="Path_14869" data-name="Path 14869" d="M299.476,300.361a.182.182,0,0,1-.152-.08l-12.4-18.176a.184.184,0,0,1,.3-.207l12.323,18.06,21.815-7.489-12.037-17.638a.184.184,0,1,1,.3-.208L321.8,292.46a.183.183,0,0,1-.092.278l-22.177,7.613A.184.184,0,0,1,299.476,300.361Z" transform="translate(-286.89 -269.129)" fill="#010526" stroke="#010526" stroke-miterlimit="10" stroke-width="0.5"/>
          <path id="Path_14870" data-name="Path 14870" d="M335.529,293.13a.184.184,0,0,1-.057-.359l12.448-4.122-13.893-21.176a.184.184,0,0,1,.308-.2l14.024,21.375a.183.183,0,0,1-.1.275l-12.676,4.2A.174.174,0,0,1,335.529,293.13Z" transform="translate(-299.32 -267.189)" fill="#010526" stroke="#010526" stroke-miterlimit="10" stroke-width="0.5"/>
          <path id="Path_14871" data-name="Path 14871" d="M317.823,274.961l17.145,18.729-3.634,1.4Z" transform="translate(-295.052 -269.24)" fill="#010526" stroke="#010526" stroke-miterlimit="10" stroke-width="0.5"/>
        </g>
        <g id="Group_3932" data-name="Group 3932" transform="translate(0 22.698)">
          <g id="Group_3929" data-name="Group 3929" transform="translate(36.837 0.443)">
            <path id="Path_14872" data-name="Path 14872" d="M324.759,352.067l1.231,20.924L338.5,371.76l.411-19.488A44.609,44.609,0,0,1,324.759,352.067Z" transform="translate(-314.874 -312.726)" fill="#fff800"/>
            <path id="Path_14873" data-name="Path 14873" d="M326.431,380.05s14.813,14.723,19.446,14.062-6.934-15.292-6.934-15.292Z" transform="translate(-315.315 -319.785)" fill="#010526" stroke="#010526" stroke-miterlimit="10" stroke-width="0.5"/>
            <path id="Path_14874" data-name="Path 14874" d="M321.29,340.209a.184.184,0,0,1-.184-.177l-.8-21.424-8.939-11.8a.184.184,0,1,1,.294-.223l8.973,11.842a.181.181,0,0,1,.038.1l.8,21.481a.184.184,0,0,1-.177.191Z" transform="translate(-311.331 -300.708)" fill="#010526" stroke="#010526" stroke-miterlimit="10" stroke-width="0.5"/>
            <path id="Path_14875" data-name="Path 14875" d="M341.127,338.455h0a.183.183,0,0,1-.182-.185c0-.219.272-21.84.272-24.456,0-2.567-7.4-14.787-7.476-14.91a.184.184,0,1,1,.314-.191c.308.506,7.53,12.432,7.53,15.1,0,2.618-.269,24.242-.272,24.46A.185.185,0,0,1,341.127,338.455Z" transform="translate(-317.236 -298.625)" fill="#010526" stroke="#010526" stroke-miterlimit="10" stroke-width="0.5"/>
            <path id="Path_14876" data-name="Path 14876" d="M340.373,323.393c-1.288,0-2.191-.948-2.685-2.825a.184.184,0,0,1,.356-.093c.5,1.91,1.407,2.728,2.739,2.516a.182.182,0,0,1,.211.152.185.185,0,0,1-.152.212A2.974,2.974,0,0,1,340.373,323.393Z" transform="translate(-318.284 -304.354)" fill="#010526" stroke="#010526" stroke-miterlimit="10" stroke-width="0.5"/>
          </g>
          <g id="Group_3931" data-name="Group 3931">
            <path id="Path_14877" data-name="Path 14877" d="M300.677,315.12a.184.184,0,0,1-.05-.361l10.773-3.038a.184.184,0,1,1,.1.353l-10.773,3.038A.164.164,0,0,1,300.677,315.12Z" transform="translate(-271.634 -301.636)" fill="#010526" stroke="#010526" stroke-miterlimit="10" stroke-width="0.5"/>
            <g id="Group_3930" data-name="Group 3930">
              <path id="Path_14878" data-name="Path 14878" d="M344.228,318.433a.184.184,0,0,1-.032-.365,30.537,30.537,0,0,0,6.463-1.855c4.348-2.309,3.754-5.467,2.93-7.641-.792-2.09-6.251-10.179-6.306-10.261a.185.185,0,0,1,.049-.255.183.183,0,0,1,.255.05c.226.333,5.538,8.206,6.345,10.335.5,1.328,2.038,5.369-3.1,8.1a30.174,30.174,0,0,1-6.571,1.892A.166.166,0,0,1,344.228,318.433Z" transform="translate(-283.125 -298.024)" fill="#010526" stroke="#010526" stroke-miterlimit="10" stroke-width="0.5"/>
              <path id="Path_14879" data-name="Path 14879" d="M293.538,315.914l-19.974,6.352,4.278,11.823,18.987-4.407A44.607,44.607,0,0,1,293.538,315.914Z" transform="translate(-264.528 -302.744)" fill="#fff800"/>
              <path id="Path_14880" data-name="Path 14880" d="M270.325,324.543s-10.617,17.985-8.834,22.313,13.111-10.49,13.111-10.49Z" transform="translate(-261.29 -305.021)" fill="#010526" stroke="#010526" stroke-miterlimit="10" stroke-width="0.5"/>
              <path id="Path_14881" data-name="Path 14881" d="M353.98,317.652a.184.184,0,0,1-.056-.359,1.133,1.133,0,0,0,.757-.669c.449-1.11-.559-3.022-.569-3.041a.184.184,0,0,1,.325-.173c.045.085,1.1,2.084.585,3.352a1.5,1.5,0,0,1-.986.882A.189.189,0,0,1,353.98,317.652Z" transform="translate(-285.699 -302.058)" fill="#010526" stroke="#010526" stroke-miterlimit="10" stroke-width="0.5"/>
            </g>
            <path id="Path_14882" data-name="Path 14882" d="M305.094,333.432a.184.184,0,0,1-.04-.364l13.679-3.09a.183.183,0,0,1,.22.139.184.184,0,0,1-.14.22l-13.679,3.09A.186.186,0,0,1,305.094,333.432Z" transform="translate(-272.799 -306.454)" fill="#010526" stroke="#010526" stroke-miterlimit="10" stroke-width="0.5"/>
          </g>
        </g>
      </g>
      <g id="Group_3934" data-name="Group 3934" transform="translate(64.737)">
        <path id="Path_14883" data-name="Path 14883" d="M310.716,183.184c-2.613,0-4.946-2.438-5.675-5.93a.184.184,0,0,1,.361-.076c.693,3.319,2.878,5.637,5.314,5.637,3.062,0,5.553-3.549,5.553-7.911s-2.491-7.9-5.553-7.9c-2.565,0-4.779,2.476-5.384,6.022a.18.18,0,0,1-.212.151.185.185,0,0,1-.15-.213c.635-3.726,3-6.329,5.746-6.329,3.265,0,5.921,3.711,5.921,8.272S313.981,183.184,310.716,183.184Z" transform="translate(-301.269 -162.969)" fill="#010526" stroke="#010526" stroke-miterlimit="10" stroke-width="0.5"/>
        <path id="Path_14884" data-name="Path 14884" d="M310.631,196.623a7.266,7.266,0,0,1-6.371-4.1.183.183,0,0,1-.018-.078l-.051-12.8a1.579,1.579,0,0,1-.4.084,1.723,1.723,0,0,1-1.4-.679,2.909,2.909,0,0,1-.631-1.714,2.844,2.844,0,0,1,.643-2.027,1.6,1.6,0,0,1,1.115-.564,1.459,1.459,0,0,1,.883.232.184.184,0,0,1-.2.311,1.143,1.143,0,0,0-.668-.175,1.241,1.241,0,0,0-.861.442,2.47,2.47,0,0,0-.548,1.762,2.534,2.534,0,0,0,.545,1.5,1.375,1.375,0,0,0,1.1.547,1.156,1.156,0,0,0,.509-.162.187.187,0,0,1,.185,0,.183.183,0,0,1,.094.16l.052,13.047a6.8,6.8,0,0,0,6.556,3.823,2.544,2.544,0,0,0,2.453-1.851l.115-11.482a.184.184,0,0,1,.184-.183h0a.184.184,0,0,1,.182.186l-.119,11.522a2.888,2.888,0,0,1-2.777,2.174A5.423,5.423,0,0,1,310.631,196.623Z" transform="translate(-300.422 -165.109)" fill="#010526" stroke="#010526" stroke-miterlimit="10" stroke-width="0.5"/>
        <path id="Path_14885" data-name="Path 14885" d="M304,178.665a.183.183,0,0,1-.157-.089l-.875-1.435a.184.184,0,0,1,.315-.191l.874,1.436a.183.183,0,0,1-.062.252A.18.18,0,0,1,304,178.665Z" transform="translate(-300.735 -165.668)" fill="#010526" stroke="#010526" stroke-miterlimit="10" stroke-width="0.5"/>
        <ellipse id="Ellipse_19" data-name="Ellipse 19" cx="0.316" cy="0.436" rx="0.316" ry="0.436" transform="translate(7.825 10.066)" fill="#010526" stroke="#010526" stroke-miterlimit="10" stroke-width="0.5"/>
        <ellipse id="Ellipse_20" data-name="Ellipse 20" cx="0.316" cy="0.436" rx="0.316" ry="0.436" transform="translate(11.237 10.066)" fill="#010526" stroke="#010526" stroke-miterlimit="10" stroke-width="0.5"/>
        <path id="Path_14886" data-name="Path 14886" d="M314.03,179.033a.091.091,0,0,1-.088-.067l-.711-2.451a.092.092,0,0,1,.063-.114.091.091,0,0,1,.114.063l.711,2.451a.091.091,0,0,1-.063.114A.1.1,0,0,1,314.03,179.033Z" transform="translate(-303.449 -165.546)" fill="#010526" stroke="#010526" stroke-miterlimit="10" stroke-width="0.5"/>
        <path id="Path_14887" data-name="Path 14887" d="M311.983,181.832a2.318,2.318,0,0,1-1.163-.321,2.556,2.556,0,0,1-1.287-2.312.179.179,0,0,1,.193-.174.185.185,0,0,1,.175.194,2.185,2.185,0,0,0,1.1,1.974,1.923,1.923,0,0,0,2.068-.066.184.184,0,1,1,.2.308A2.355,2.355,0,0,1,311.983,181.832Z" transform="translate(-302.473 -166.238)" fill="#010526" stroke="#010526" stroke-miterlimit="10" stroke-width="0.5"/>
        <path id="Path_14888" data-name="Path 14888" d="M301.457,174.26a1.368,1.368,0,0,1-1.419-.876c-.517-1.732,1.251-2.879,1.251-2.879s-1.247,0-1.043-.918c.222-1,1.628-1.043,1.628-1.043s-2.189-.861-1.335-2.211c.9-1.427,3.38-.334,3.38-.334s-1.043-1.377,0-2.336,3.922.167,3.922.167a1.623,1.623,0,0,1,1.085-2.086c2.083-.716,4.465,3.212,4.465,3.212.618-.869,1.8-.038,2.163,1.779a13.2,13.2,0,0,1-.269,6.553s-1.248-4.815-2.406-5.284a15.215,15.215,0,0,0-5.93,0c-.938.414-.981,1.205-1.517,2.124a8.966,8.966,0,0,1-1.536,1.719,1.152,1.152,0,0,0-1.048-.349,1.968,1.968,0,0,0-1.269,1.379A3.5,3.5,0,0,0,301.457,174.26Z" transform="translate(-299.943 -161.656)" fill="#010526" stroke="#010526" stroke-miterlimit="10" stroke-width="0.5"/>
        <path id="Path_14889" data-name="Path 14889" d="M309.139,199.959a.206.206,0,0,1-.046-.006,3.908,3.908,0,0,1-1.921-1.618.185.185,0,0,1,.062-.253.187.187,0,0,1,.253.062,3.588,3.588,0,0,0,1.7,1.452.185.185,0,0,1-.047.363Z" transform="translate(-301.844 -171.26)" fill="#010526" stroke="#010526" stroke-miterlimit="10" stroke-width="0.5"/>
        <ellipse id="Ellipse_21" data-name="Ellipse 21" cx="1.209" cy="0.622" rx="1.209" ry="0.622" transform="translate(11.612 11.247)" fill="#010526" opacity="0.4"/>
        <ellipse id="Ellipse_22" data-name="Ellipse 22" cx="1.209" cy="0.622" rx="1.209" ry="0.622" transform="translate(5.843 11.247)" fill="#010526" opacity="0.4"/>
      </g>
    </g>
  </g>
</svg>
