<svg xmlns="http://www.w3.org/2000/svg" width="265.581" height="160.792" viewBox="0 0 265.581 160.792">
  <g id="Group_3961" data-name="Group 3961" transform="translate(-561.298 -75.404)">
    <g id="Group_3951" data-name="Group 3951" transform="translate(703.772 87.407)">
      <g id="Group_3939" data-name="Group 3939" transform="translate(0 80.84)">
        <path id="Path_14890" data-name="Path 14890" d="M825.3,235.655c0-53.18-42.231-67.157-42.231-67.157s1.962,32.686-19.612,32.686c-20.952,0-20.322-30.832-20.268-32.607a.052.052,0,0,0-.072-.053c-1.917.7-40.131,15.285-40.131,67.131Z" transform="translate(-702.985 -168.498)" fill="none" stroke="#010526" stroke-miterlimit="10" stroke-width="1.585"/>
        <g id="Group_3938" data-name="Group 3938" transform="translate(4.638 10.099)">
          <circle id="Ellipse_23" data-name="Ellipse 23" cx="1.969" cy="1.969" r="1.969" transform="translate(26.867 1.969)" fill="#010526"/>
          <circle id="Ellipse_24" data-name="Ellipse 24" cx="1.969" cy="1.969" r="1.969" transform="translate(15.711 12.737)" fill="#010526"/>
          <path id="Path_14891" data-name="Path 14891" d="M746.3,198.185a1.969,1.969,0,1,1-1.969-1.969A1.97,1.97,0,0,1,746.3,198.185Z" transform="translate(-707.623 -178.597)" fill="#010526"/>
          <circle id="Ellipse_25" data-name="Ellipse 25" cx="1.969" cy="1.969" r="1.969" transform="translate(5.723 27.686)" fill="#010526"/>
          <circle id="Ellipse_26" data-name="Ellipse 26" cx="1.969" cy="1.969" r="1.969" transform="translate(21.079 25.717)" fill="#010526"/>
          <circle id="Ellipse_27" data-name="Ellipse 27" cx="1.969" cy="1.969" r="1.969" transform="translate(0 48.07)" fill="#010526"/>
          <path id="Path_14892" data-name="Path 14892" d="M725.3,221.207a1.969,1.969,0,1,1-1.968-1.969A1.968,1.968,0,0,1,725.3,221.207Z" transform="translate(-707.623 -178.597)" fill="#010526"/>
          <circle id="Ellipse_28" data-name="Ellipse 28" cx="1.969" cy="1.969" r="1.969" transform="translate(24.899 49.185)" fill="#010526"/>
          <circle id="Ellipse_29" data-name="Ellipse 29" cx="1.969" cy="1.969" r="1.969" transform="translate(32.774 35.448)" fill="#010526"/>
          <circle id="Ellipse_30" data-name="Ellipse 30" cx="1.969" cy="1.969" r="1.969" transform="translate(50.367 38.672)" fill="#010526"/>
          <circle id="Ellipse_31" data-name="Ellipse 31" cx="1.969" cy="1.969" r="1.969" transform="translate(46.429 26.932)" fill="#010526"/>
          <circle id="Ellipse_32" data-name="Ellipse 32" cx="1.969" cy="1.969" r="1.969" transform="translate(65.278 23.749)" fill="#010526"/>
          <circle id="Ellipse_33" data-name="Ellipse 33" cx="1.969" cy="1.969" r="1.969" transform="translate(77.636 14.705)" fill="#010526"/>
          <circle id="Ellipse_34" data-name="Ellipse 34" cx="1.969" cy="1.969" r="1.969" transform="translate(90.932 22.994)" fill="#010526"/>
          <circle id="Ellipse_35" data-name="Ellipse 35" cx="1.969" cy="1.969" r="1.969" transform="translate(97.691 36.703)" fill="#010526"/>
          <circle id="Ellipse_36" data-name="Ellipse 36" cx="1.969" cy="1.969" r="1.969" transform="translate(110.147 44.578)" fill="#010526"/>
          <circle id="Ellipse_37" data-name="Ellipse 37" cx="1.969" cy="1.969" r="1.969" transform="translate(104.424 24.963)" fill="#010526"/>
          <circle id="Ellipse_38" data-name="Ellipse 38" cx="1.969" cy="1.969" r="1.969" transform="translate(84.618 32.766)" fill="#010526"/>
          <circle id="Ellipse_39" data-name="Ellipse 39" cx="1.969" cy="1.969" r="1.969" transform="translate(97.691 48.07)" fill="#010526"/>
          <circle id="Ellipse_40" data-name="Ellipse 40" cx="1.969" cy="1.969" r="1.969" transform="translate(82.65 47.217)" fill="#010526"/>
          <circle id="Ellipse_41" data-name="Ellipse 41" cx="1.969" cy="1.969" r="1.969" transform="translate(81.573)" fill="#010526"/>
          <circle id="Ellipse_42" data-name="Ellipse 42" cx="1.969" cy="1.969" r="1.969" transform="translate(94.869 10.02)" fill="#010526"/>
          <circle id="Ellipse_43" data-name="Ellipse 43" cx="1.969" cy="1.969" r="1.969" transform="translate(69.817 36.703)" fill="#010526"/>
          <circle id="Ellipse_44" data-name="Ellipse 44" cx="1.969" cy="1.969" r="1.969" transform="translate(64.677 50.039)" fill="#010526"/>
          <circle id="Ellipse_45" data-name="Ellipse 45" cx="1.969" cy="1.969" r="1.969" transform="translate(45.477 49.185)" fill="#010526"/>
        </g>
      </g>
      <g id="Group_3950" data-name="Group 3950" transform="translate(35.443)">
        <path id="Path_14893" data-name="Path 14893" d="M740.75,121.749s3.618.57,3.618-5.128-.277-12.649,8.506-13.9,19.187,7.521,26.538-1.253c0,0,7.35-9.117-1.432-11.852-8-2.491-23.76-5.928-34.658,9.066a16.162,16.162,0,0,0-2.92,9.868Z" transform="translate(-738.428 -87.407)" fill="#010526"/>
        <path id="Path_14894" data-name="Path 14894" d="M780.733,96.475c-1.1,1.767-1.421,1.428-2.557,3.171,3.706,3.64,4.282,7.468,4.282,16.975,0,5.7,3.618,5.128,3.618,5.128l.348-13.2C786.061,101.919,780.942,96.139,780.733,96.475Z" transform="translate(-738.428 -87.407)" fill="#010526"/>
        <g id="Group_3949" data-name="Group 3949" transform="translate(0 4.594)">
          <path id="Path_14895" data-name="Path 14895" d="M783.086,168.879l-.145-37.663a4.934,4.934,0,1,0,0-9.867v-9.558A19.79,19.79,0,0,0,763.151,92h0a19.79,19.79,0,0,0-19.79,19.79v9.558a4.934,4.934,0,0,0,0,9.867l-.185,38.1" transform="translate(-738.428 -92.001)" fill="none" stroke="#010526" stroke-miterlimit="10" stroke-width="1.668"/>
          <g id="Group_3947" data-name="Group 3947" transform="translate(3.39 20.102)">
            <g id="Group_3942" data-name="Group 3942" transform="translate(7.045 9.662)">
              <g id="Group_3940" data-name="Group 3940" transform="translate(0 10.251)">
                <path id="Path_14896" data-name="Path 14896" d="M754,134.2a2.6,2.6,0,1,1-2.57-2.188A2.4,2.4,0,0,1,754,134.2Z" transform="translate(-748.863 -132.016)" fill="#010526" opacity="0.5"/>
                <path id="Path_14897" data-name="Path 14897" d="M777.44,134.2a2.6,2.6,0,1,1-2.57-2.188A2.4,2.4,0,0,1,777.44,134.2Z" transform="translate(-748.863 -132.016)" fill="#010526" opacity="0.5"/>
              </g>
              <g id="Group_3941" data-name="Group 3941" transform="translate(11.095)">
                <path id="Path_14898" data-name="Path 14898" d="M763.152,121.765l1.078,10.853h-3.9" transform="translate(-759.958 -121.765)" fill="none" stroke="#010526" stroke-miterlimit="10" stroke-width="1.668"/>
                <path id="Path_14899" data-name="Path 14899" d="M759.958,138.813s.356,2.1,3.2,2.1,3.192-2.1,3.192-2.1" transform="translate(-759.958 -121.765)" fill="none" stroke="#010526" stroke-miterlimit="10" stroke-width="1.668"/>
              </g>
            </g>
            <g id="Group_3946" data-name="Group 3946">
              <g id="Group_3945" data-name="Group 3945">
                <g id="Group_3943" data-name="Group 3943" transform="translate(0 9.643)">
                  <line id="Line_1" data-name="Line 1" x2="3.727" y2="0.038" fill="none" stroke="#010526" stroke-miterlimit="10" stroke-width="0.943"/>
                  <line id="Line_2" data-name="Line 2" x2="3.727" y2="0.038" transform="translate(38.941)" fill="none" stroke="#010526" stroke-miterlimit="10" stroke-width="0.943"/>
                </g>
                <g id="Group_3944" data-name="Group 3944" transform="translate(1.64)">
                  <circle id="Ellipse_46" data-name="Ellipse 46" cx="8.142" cy="8.142" r="8.142" transform="translate(0 5.493) rotate(-19.712)" fill="none" stroke="#010526" stroke-miterlimit="10" stroke-width="0.943"/>
                  <circle id="Ellipse_47" data-name="Ellipse 47" cx="8.142" cy="8.142" r="8.142" transform="matrix(1, -0.017, 0.017, 1, 20.695, 2.41)" fill="none" stroke="#010526" stroke-miterlimit="10" stroke-width="0.943"/>
                  <line id="Line_3" data-name="Line 3" x2="2.29" transform="translate(18.549 9.508)" fill="none" stroke="#010526" stroke-miterlimit="10" stroke-width="0.943"/>
                </g>
              </g>
              <path id="Path_14900" data-name="Path 14900" d="M752.157,124.306s.472-3.224,1.824-3.224,1.6,3.224,1.6,3.224" transform="translate(-741.818 -112.103)" fill="none" stroke="#010526" stroke-miterlimit="10" stroke-width="1.278"/>
              <path id="Path_14901" data-name="Path 14901" d="M770.725,124.306s.471-3.224,1.823-3.224,1.6,3.224,1.6,3.224" transform="translate(-741.818 -112.103)" fill="none" stroke="#010526" stroke-miterlimit="10" stroke-width="1.278"/>
            </g>
          </g>
          <g id="Group_3948" data-name="Group 3948" transform="translate(2.863 32.856)">
            <path id="Path_14902" data-name="Path 14902" d="M742.926,128.128a1.636,1.636,0,0,1,0-3.271" transform="translate(-741.291 -124.857)" fill="none" stroke="#010526" stroke-miterlimit="10" stroke-width="0.778"/>
            <path id="Path_14903" data-name="Path 14903" d="M783.376,124.857a1.636,1.636,0,1,1,0,3.271" transform="translate(-741.291 -124.857)" fill="none" stroke="#010526" stroke-miterlimit="10" stroke-width="0.778"/>
          </g>
        </g>
      </g>
    </g>
    <g id="Group_3960" data-name="Group 3960" transform="translate(562.086 75.404)">
      <g id="Group_3955" data-name="Group 3955">
        <g id="Group_3952" data-name="Group 3952" transform="translate(0 93.177)">
          <path id="Path_14904" data-name="Path 14904" d="M602.091,168.832s-1.3,32.524,20.165,32.524,19.514-32.524,19.514-32.524l18.928,6.83,1.237,59.993H583.552l1.626-59.993Z" transform="translate(-562.086 -168.832)" fill="none" stroke="#010526" stroke-miterlimit="10" stroke-width="1.577"/>
          <path id="Path_14905" data-name="Path 14905" d="M585.178,175.662s-23.092,7.078-23.092,59.993h21.466Z" transform="translate(-562.086 -168.832)" fill="none" stroke="#010526" stroke-miterlimit="10" stroke-width="1.577"/>
          <path id="Path_14906" data-name="Path 14906" d="M660.7,175.662s23.092,7.078,23.092,59.993H662.324Z" transform="translate(-562.086 -168.832)" fill="none" stroke="#010526" stroke-miterlimit="10" stroke-width="1.577"/>
          <path id="Path_14907" data-name="Path 14907" d="M602.091,168.832l-9.768,15.722a2.576,2.576,0,0,0,1.6,3.868l6.995,1.632-6.61,7.812a2.575,2.575,0,0,0-.349,2.793l16.6,34.015a.345.345,0,0,0,.651-.1l5.45-34.072" transform="translate(-562.086 -168.832)" fill="none" stroke="#010526" stroke-miterlimit="10" stroke-width="1.577"/>
          <path id="Path_14908" data-name="Path 14908" d="M641.878,168.832l9.768,15.722a2.576,2.576,0,0,1-1.6,3.868l-7,1.632,6.61,7.812a2.575,2.575,0,0,1,.349,2.793l-16.6,34.015a.345.345,0,0,1-.651-.1l-5.451-34.072" transform="translate(-562.086 -168.832)" fill="none" stroke="#010526" stroke-miterlimit="10" stroke-width="1.577"/>
          <line id="Line_4" data-name="Line 4" x2="12.387" transform="translate(53.495 38.427)" fill="none" stroke="#010526" stroke-miterlimit="10" stroke-width="1.577"/>
          <line id="Line_5" data-name="Line 5" x2="14.467" transform="translate(52.299 44.193)" fill="none" stroke="#010526" stroke-miterlimit="10" stroke-width="1.577"/>
          <line id="Line_6" data-name="Line 6" x2="15.2" transform="translate(52.299 49.959)" fill="none" stroke="#010526" stroke-miterlimit="10" stroke-width="1.577"/>
          <line id="Line_7" data-name="Line 7" x2="18.551" transform="translate(50.949 55.726)" fill="none" stroke="#010526" stroke-miterlimit="10" stroke-width="1.577"/>
          <line id="Line_8" data-name="Line 8" x2="19.56" transform="translate(49.753 61.492)" fill="none" stroke="#010526" stroke-miterlimit="10" stroke-width="1.577"/>
        </g>
        <g id="Group_3954" data-name="Group 3954" transform="translate(2.057)">
          <path id="Path_14909" data-name="Path 14909" d="M602.126,125.8a4.934,4.934,0,0,1,0-9.868v-9.558a19.79,19.79,0,0,1,19.79-19.79h0a19.79,19.79,0,0,1,19.79,19.79v9.558a4.934,4.934,0,1,1,0,9.868v27.368H679s-.55-19.152-11.216-29.818c-16.714-16.714-16.17-18.061-18.914-25.511C640.6,75.386,621.761,75.4,621.761,75.4s-19.22-.018-27.488,22.432c-2.744,7.45-2.2,8.8-18.914,25.511-10.666,10.666-11.216,29.818-11.216,29.818h37.983Z" transform="translate(-564.143 -75.404)" fill="#010526"/>
          <path id="Path_14910" data-name="Path 14910" d="M641.77,168.832l-.064-43.035a4.934,4.934,0,1,0,0-9.868v-9.558a19.79,19.79,0,0,0-19.79-19.79h0a19.79,19.79,0,0,0-19.79,19.79v9.558a4.934,4.934,0,0,0,0,9.868l-.05,44.588" transform="translate(-564.143 -75.404)" fill="none" stroke="#010526" stroke-miterlimit="10" stroke-width="1.668"/>
          <path id="Path_14911" data-name="Path 14911" d="M607.974,89.636s.443,10.947,19.954,10.947c12.5,0,13.123,16,13.123,16S650.653,74.671,607.974,89.636Z" transform="translate(-564.143 -75.404)" fill="#010526"/>
          <path id="Path_14912" data-name="Path 14912" d="M607.974,89.636s6.74,5.039-1.812,13.591c-4.429,4.429-3.148,13.59-3.148,13.59S597.72,97.4,607.974,89.636Z" transform="translate(-564.143 -75.404)" fill="#010526"/>
          <g id="Group_3953" data-name="Group 3953" transform="translate(35.869 43.765)">
            <path id="Path_14913" data-name="Path 14913" d="M601.648,122.44a1.636,1.636,0,1,1,0-3.271" transform="translate(-600.012 -119.169)" fill="none" stroke="#010526" stroke-miterlimit="10" stroke-width="0.778"/>
            <path id="Path_14914" data-name="Path 14914" d="M642.1,119.169a1.636,1.636,0,0,1,0,3.271" transform="translate(-600.012 -119.169)" fill="none" stroke="#010526" stroke-miterlimit="10" stroke-width="0.778"/>
          </g>
        </g>
      </g>
      <g id="Group_3959" data-name="Group 3959" transform="translate(45.888 42.401)">
        <g id="Group_3956" data-name="Group 3956" transform="translate(10.403)">
          <path id="Path_14915" data-name="Path 14915" d="M622.972,117.88l2.86,5.929-3.473,2.248" transform="translate(-618.377 -117.88)" fill="none" stroke="#010526" stroke-miterlimit="10" stroke-width="1.668"/>
          <path id="Path_14916" data-name="Path 14916" d="M618.377,132.959s.356,2.1,3.2,2.1,3.191-2.1,3.191-2.1" transform="translate(-618.377 -117.88)" fill="none" stroke="#010526" stroke-miterlimit="10" stroke-width="1.668"/>
        </g>
        <g id="Group_3958" data-name="Group 3958" transform="translate(0 3.272)">
          <g id="Group_3957" data-name="Group 3957">
            <path id="Path_14917" data-name="Path 14917" d="M613.114,123.339a2.6,2.6,0,1,1-2.57-2.187A2.4,2.4,0,0,1,613.114,123.339Z" transform="translate(-607.974 -121.152)" fill="#010526" opacity="0.5"/>
            <path id="Path_14918" data-name="Path 14918" d="M636.55,123.339a2.6,2.6,0,1,1-2.57-2.187A2.4,2.4,0,0,1,636.55,123.339Z" transform="translate(-607.974 -121.152)" fill="#010526" opacity="0.5"/>
          </g>
        </g>
      </g>
    </g>
    <path id="Path_14919" data-name="Path 14919" d="M609.357,119.169s.472-3.224,1.824-3.224,1.6,3.224,1.6,3.224" transform="translate(0 -0.065)" fill="none" stroke="#010526" stroke-miterlimit="10" stroke-width="1.278"/>
    <path id="Path_14920" data-name="Path 14920" d="M631.936,119.169s.472-3.224,1.824-3.224,1.6,3.224,1.6,3.224" transform="translate(0.212 -0.065)" fill="none" stroke="#010526" stroke-miterlimit="10" stroke-width="1.278"/>
  </g>
</svg>
