<svg xmlns="http://www.w3.org/2000/svg" width="256.58" height="188.792" viewBox="0 0 256.58 188.792">
  <g id="Group_3987" data-name="Group 3987" transform="translate(339.409 -227.093)">
    <g id="Group_3974" data-name="Group 3974" transform="translate(-205.853 262.954)">
      <g id="Group_3965" data-name="Group 3965" transform="translate(0 85.026)">
        <path id="Path_14924" data-name="Path 14924" d="M-165.214,348.478s-1.307,32.665,20.252,32.665,19.6-32.665,19.6-32.665l19.01,6.86,1.242,60.253h-78.723l1.633-60.253Z" transform="translate(205.392 -348.478)" fill="#010526" stroke="#010526" stroke-miterlimit="10" stroke-width="1.585"/>
        <path id="Path_14925" data-name="Path 14925" d="M-182.2,355.338s-23.192,7.108-23.192,60.253h21.559Z" transform="translate(205.392 -348.478)" fill="none" stroke="#010526" stroke-miterlimit="10" stroke-width="1.584"/>
        <path id="Path_14926" data-name="Path 14926" d="M-106.352,355.338s23.192,7.108,23.192,60.253h-21.559Z" transform="translate(205.392 -348.478)" fill="none" stroke="#010526" stroke-miterlimit="10" stroke-width="1.584"/>
      </g>
      <g id="Group_3973" data-name="Group 3973" transform="translate(35.571)">
        <g id="Group_3969" data-name="Group 3969" transform="translate(10.457 38.597)">
          <g id="Group_3966" data-name="Group 3966" transform="translate(10.54 2.773)">
            <path id="Path_14927" data-name="Path 14927" d="M-144.229,304.822l2.86,5.929L-144.842,313" transform="translate(148.824 -304.822)" fill="none" stroke="#010526" stroke-miterlimit="10" stroke-width="1.668"/>
            <path id="Path_14928" data-name="Path 14928" d="M-148.824,319.9s.356,2.1,3.194,2.1,3.192-2.1,3.192-2.1" transform="translate(148.824 -304.822)" fill="none" stroke="#010526" stroke-miterlimit="10" stroke-width="1.668"/>
          </g>
          <g id="Group_3967" data-name="Group 3967" transform="translate(0 5.123)">
            <path id="Path_14929" data-name="Path 14929" d="M-154.225,309.36a2.4,2.4,0,0,1-2.569,2.188,2.4,2.4,0,0,1-2.57-2.188,2.4,2.4,0,0,1,2.57-2.188A2.4,2.4,0,0,1-154.225,309.36Z" transform="translate(159.364 -307.172)" fill="#010526" opacity="0.5"/>
            <path id="Path_14930" data-name="Path 14930" d="M-130.788,309.36a2.4,2.4,0,0,1-2.57,2.188,2.4,2.4,0,0,1-2.57-2.188,2.4,2.4,0,0,1,2.57-2.188A2.4,2.4,0,0,1-130.788,309.36Z" transform="translate(159.364 -307.172)" fill="#010526" opacity="0.5"/>
          </g>
          <g id="Group_3968" data-name="Group 3968" transform="translate(1.715)">
            <path id="Path_14931" data-name="Path 14931" d="M-157.649,305.273s.472-3.224,1.824-3.224,1.6,3.224,1.6,3.224" transform="translate(157.649 -302.049)" fill="none" stroke="#010526" stroke-miterlimit="10" stroke-width="1.278"/>
            <path id="Path_14932" data-name="Path 14932" d="M-135.07,305.273s.471-3.224,1.824-3.224,1.6,3.224,1.6,3.224" transform="translate(157.649 -302.049)" fill="none" stroke="#010526" stroke-miterlimit="10" stroke-width="1.278"/>
          </g>
        </g>
        <g id="Group_3972" data-name="Group 3972">
          <g id="Group_3970" data-name="Group 3970">
            <path id="Path_14933" data-name="Path 14933" d="M-125.36,307.135h0a20.914,20.914,0,0,0,3.61-18.2,40.272,40.272,0,0,0-10.1-17.481c-5.933-6.015-13.906-10.377-23.385-6.589-6.732,2.689-5.158,7.591-5.158,7.591s-11.547.831-8.167,14.529c2.794,11.324,22.015-.693,29.223-3.907,3.4-1.518,9.77.345,12.035,5.791C-124.776,294.941-125.36,307.135-125.36,307.135Z" transform="translate(169.821 -263.452)" fill="#010526"/>
            <path id="Path_14934" data-name="Path 14934" d="M-169.08,288.938a40.726,40.726,0,0,1,4.429-10.178q1.579,3.519,3.148,7.043a9.877,9.877,0,0,0-2.026,3.069c-2.525,6.069-1.941,18.263-1.941,18.263A20.917,20.917,0,0,1-169.08,288.938Z" transform="translate(169.821 -263.452)" fill="#010526"/>
            <path id="Path_14935" data-name="Path 14935" d="M-125.362,348.478l.055-31.847a4.933,4.933,0,0,0,4.934-4.933,4.934,4.934,0,0,0-4.934-4.934v-9.558a19.79,19.79,0,0,0-19.79-19.79h0a19.79,19.79,0,0,0-19.79,19.79v9.558a4.934,4.934,0,0,0-4.934,4.934,4.933,4.933,0,0,0,4.934,4.933l-.327,31.847" transform="translate(169.821 -263.452)" fill="none" stroke="#010526" stroke-miterlimit="10" stroke-width="1.668"/>
          </g>
          <g id="Group_3971" data-name="Group 3971" transform="translate(2.866 46.08)">
            <path id="Path_14936" data-name="Path 14936" d="M-165.319,312.8a1.637,1.637,0,0,1-1.636-1.636,1.636,1.636,0,0,1,1.636-1.635" transform="translate(166.955 -309.532)" fill="none" stroke="#010526" stroke-miterlimit="10" stroke-width="0.778"/>
            <path id="Path_14937" data-name="Path 14937" d="M-124.869,309.532a1.636,1.636,0,0,1,1.636,1.635,1.637,1.637,0,0,1-1.636,1.636" transform="translate(166.955 -309.532)" fill="none" stroke="#010526" stroke-miterlimit="10" stroke-width="0.778"/>
          </g>
        </g>
      </g>
    </g>
    <g id="Group_3986" data-name="Group 3986" transform="translate(-338.621 227.093)">
      <g id="Group_3975" data-name="Group 3975" transform="translate(0 121.177)">
        <path id="Path_14938" data-name="Path 14938" d="M-216.917,415.591c0-52.915-42.02-66.823-42.02-66.823s1.952,32.524-19.514,32.524c-20.848,0-20.221-30.678-20.168-32.445a.05.05,0,0,0-.071-.052c-1.908.695-39.931,15.208-39.931,66.8Z" transform="translate(338.621 -348.768)" fill="none" stroke="#010526" stroke-miterlimit="10" stroke-width="1.577"/>
        <path id="Path_14939" data-name="Path 14939" d="M-298.624,349.1l-1.541,65.162a.239.239,0,0,1-.465.072l-6.765-19.662a24.222,24.222,0,0,1,2.487-20.914h0a10.63,10.63,0,0,1-1.362-13.361l7.473-11.351A.094.094,0,0,1-298.624,349.1Z" transform="translate(338.621 -348.768)" fill="#010526" stroke="#010526" stroke-miterlimit="10" stroke-width="1.668"/>
        <path id="Path_14940" data-name="Path 14940" d="M-259.039,349.268l1.537,64.99a.239.239,0,0,0,.465.072l6.765-19.662a24.225,24.225,0,0,0-2.488-20.914h0a10.628,10.628,0,0,0,1.362-13.361l-7.378-11.207A.143.143,0,0,0-259.039,349.268Z" transform="translate(338.621 -348.768)" fill="#010526" stroke="#010526" stroke-miterlimit="10" stroke-width="1.668"/>
      </g>
      <g id="Group_3985" data-name="Group 3985" transform="translate(35.171)">
        <g id="Group_3978" data-name="Group 3978" transform="translate(10.097 65.302)">
          <g id="Group_3976" data-name="Group 3976" transform="translate(0 5.863)">
            <path id="Path_14941" data-name="Path 14941" d="M-288.214,300.445a2.4,2.4,0,0,1-2.57,2.188,2.4,2.4,0,0,1-2.569-2.188,2.4,2.4,0,0,1,2.569-2.187A2.4,2.4,0,0,1-288.214,300.445Z" transform="translate(293.353 -298.258)" fill="#010526" opacity="0.5"/>
            <path id="Path_14942" data-name="Path 14942" d="M-264.777,300.445a2.4,2.4,0,0,1-2.57,2.188,2.4,2.4,0,0,1-2.57-2.188,2.4,2.4,0,0,1,2.57-2.187A2.4,2.4,0,0,1-264.777,300.445Z" transform="translate(293.353 -298.258)" fill="#010526" opacity="0.5"/>
          </g>
          <g id="Group_3977" data-name="Group 3977" transform="translate(1.715)">
            <path id="Path_14943" data-name="Path 14943" d="M-291.638,294.653s.471-2.258,1.823-2.258,1.6,2.258,1.6,2.258" transform="translate(291.638 -292.395)" fill="none" stroke="#010526" stroke-miterlimit="10" stroke-width="1.069"/>
            <path id="Path_14944" data-name="Path 14944" d="M-269.059,294.653s.471-2.258,1.823-2.258,1.6,2.258,1.6,2.258" transform="translate(291.638 -292.395)" fill="none" stroke="#010526" stroke-miterlimit="10" stroke-width="1.069"/>
          </g>
        </g>
        <g id="Group_3984" data-name="Group 3984">
          <g id="Group_3982" data-name="Group 3982">
            <g id="Group_3979" data-name="Group 3979" transform="translate(21.191 71.178)">
              <path id="Path_14945" data-name="Path 14945" d="M-277.388,298.271l2.628,5.912-3.967,0" transform="translate(282.259 -298.271)" fill="none" stroke="#010526" stroke-miterlimit="10" stroke-width="1.668"/>
              <path id="Path_14946" data-name="Path 14946" d="M-282.259,312.593s.357,2.1,3.2,2.1,3.192-2.1,3.192-2.1" transform="translate(282.259 -298.271)" fill="none" stroke="#010526" stroke-miterlimit="10" stroke-width="1.668"/>
            </g>
            <g id="Group_3981" data-name="Group 3981">
              <g id="Group_3980" data-name="Group 3980">
                <path id="Path_14947" data-name="Path 14947" d="M-303.45,285.786a39.116,39.116,0,0,0,1.313,10.048,4.9,4.9,0,0,1,3.62-1.605v-9.558a19.79,19.79,0,0,1,19.79-19.79h0a19.79,19.79,0,0,1,19.79,19.79v9.558a4.907,4.907,0,0,1,3.621,1.605A39.161,39.161,0,0,0-254,285.786c0-10.987-4.44-20.644-11.157-26.264a18.986,18.986,0,0,0,5.49-13.373,19.057,19.057,0,0,0-19.057-19.056,19.056,19.056,0,0,0-19.056,19.056,18.99,18.99,0,0,0,5.489,13.373C-299.01,265.142-303.45,274.8-303.45,285.786Z" transform="translate(303.45 -227.093)" fill="#010526"/>
              </g>
              <path id="Path_14948" data-name="Path 14948" d="M-259.039,349.268l.1-45.172A4.933,4.933,0,0,0-254,299.163a4.934,4.934,0,0,0-4.934-4.934v-9.558a19.79,19.79,0,0,0-19.79-19.79h0a19.79,19.79,0,0,0-19.79,19.79v9.558a4.933,4.933,0,0,0-4.933,4.934,4.932,4.932,0,0,0,4.933,4.933l-.1,44.751" transform="translate(303.45 -227.093)" fill="none" stroke="#010526" stroke-miterlimit="10" stroke-width="1.668"/>
            </g>
          </g>
          <g id="Group_3983" data-name="Group 3983" transform="translate(2.863 70.466)">
            <path id="Path_14949" data-name="Path 14949" d="M-298.952,300.83a1.635,1.635,0,0,1-1.635-1.635,1.635,1.635,0,0,1,1.635-1.636" transform="translate(300.587 -297.559)" fill="none" stroke="#010526" stroke-miterlimit="10" stroke-width="0.778"/>
            <path id="Path_14950" data-name="Path 14950" d="M-258.5,297.559a1.635,1.635,0,0,1,1.636,1.636,1.635,1.635,0,0,1-1.636,1.635" transform="translate(300.587 -297.559)" fill="none" stroke="#010526" stroke-miterlimit="10" stroke-width="0.778"/>
          </g>
          <path id="Path_14951" data-name="Path 14951" d="M-298.624,292.395s16.365-3.565,19.559-24.528c0,0,1.3,17.233,20.128,26.362,0,0,4.24-32.4-19.79-32.4S-298.624,292.395-298.624,292.395Z" transform="translate(303.45 -227.093)" fill="#010526"/>
        </g>
      </g>
    </g>
  </g>
</svg>
